<!DOCTYPE svg PUBLIC "-//W3C//DTD SVG 20010904//EN" "http://www.w3.org/TR/2001/REC-SVG-20010904/DTD/svg10.dtd">
<svg version="1.0" xmlns="http://www.w3.org/2000/svg" width="1388px" height="1212px" viewBox="0 0 13880 12120" preserveAspectRatio="xMidYMid meet">
<g id="layer101" fill="#000000" stroke="none">
 <path d="M0 6060 l0 -6060 6940 0 6940 0 0 6060 0 6060 -6940 0 -6940 0 0 -6060z"/>
 </g>
<g id="layer102" fill="#261c0d" stroke="none">
 <path d="M3194 10968 c-3 -4 -18 -8 -34 -8 -16 0 -32 -5 -35 -10 -4 -6 -11 -8 -16 -4 -13 8 -106 -37 -178 -85 -77 -52 -177 -190 -185 -255 -2 -11 -9 -34 -16 -51 -6 -16 -13 -56 -15 -89 -2 -32 -6 -61 -9 -64 -9 -8 -7 -50 2 -56 5 -3 7 -18 4 -34 -5 -39 22 -142 57 -218 35 -76 159 -203 250 -257 34 -20 66 -37 70 -37 4 0 16 -9 25 -19 20 -22 105 -61 145 -66 14 -2 26 -5 26 -6 0 -5 71 -9 165 -9 94 0 165 4 165 9 0 1 12 4 26 6 40 5 125 44 145 66 9 10 23 19 31 19 7 0 16 6 19 14 3 8 14 16 25 19 10 3 22 13 26 24 4 10 19 31 35 46 35 35 99 165 103 209 2 18 5 33 6 33 6 0 4 237 -3 241 -5 3 -6 10 -3 15 4 5 3 14 -1 21 -4 7 -9 23 -10 37 -2 14 -12 37 -23 52 -11 15 -23 39 -27 54 -4 15 -13 29 -20 32 -8 3 -14 12 -14 19 0 8 -7 17 -15 20 -8 4 -15 12 -15 19 0 7 -20 29 -45 49 -25 21 -45 42 -45 49 0 21 -120 125 -177 152 -32 16 -66 32 -75 37 -10 4 -31 8 -46 8 -16 0 -32 3 -36 8 -14 14 -274 24 -282 10z m401 -348 c40 -20 55 -35 76 -75 14 -27 24 -56 21 -62 -2 -7 -1 -21 4 -30 10 -23 13 -135 4 -148 -4 -5 -11 -28 -14 -51 -8 -46 -46 -116 -91 -166 -41 -45 -115 -83 -203 -104 -62 -15 -81 -16 -118 -6 -24 7 -51 12 -60 12 -51 0 -116 98 -132 200 -10 67 -4 159 13 205 32 84 74 155 100 169 11 6 39 23 62 39 23 15 48 27 57 27 8 0 17 4 20 8 3 5 52 8 108 8 88 -1 110 -5 153 -26z"/>
 <path d="M1865 10951 l-100 -6 3 -345 c3 -366 -7 -597 -26 -609 -6 -4 -85 -8 -174 -9 -89 -1 -165 -5 -170 -10 -5 -5 -8 -44 -6 -88 l3 -79 90 0 c82 0 90 -2 93 -20 2 -11 6 -27 9 -35 3 -8 6 -19 5 -25 -1 -7 157 -10 456 -10 l459 0 -1 85 -1 85 -75 0 -74 0 -2 34 c-3 49 -25 61 -115 61 -53 0 -80 4 -88 14 -9 10 -11 123 -9 418 l3 404 -82 -4 -83 -5 -1 64 c-1 35 -1 70 0 77 1 6 -2 11 -6 10 -4 -1 -53 -4 -108 -7z"/>
 <path d="M4459 10950 c0 -3 0 -63 1 -133 1 -78 -3 -133 -9 -141 -7 -8 -12 -133 -13 -357 l-3 -344 -52 3 c-88 6 -90 4 -88 -91 l2 -82 49 0 49 0 0 -42 0 -43 173 -4 172 -4 6 23 c3 13 4 122 2 242 l-3 218 90 3 89 3 63 -68 c35 -37 63 -69 63 -71 0 -8 234 -272 242 -272 4 0 8 -6 8 -13 0 -8 11 -24 25 -37 24 -23 33 -24 146 -25 67 0 123 4 126 9 3 5 -11 24 -31 43 -20 19 -36 44 -36 56 0 13 -29 53 -75 102 -41 44 -75 83 -75 87 0 4 -20 24 -45 45 -25 20 -45 43 -45 49 0 7 -11 21 -25 32 -14 11 -25 23 -25 28 0 4 -12 21 -27 36 -23 24 -25 31 -15 46 7 9 15 25 18 34 3 9 12 19 20 22 8 3 14 11 14 18 0 7 9 19 20 26 11 7 20 18 20 25 0 7 9 18 20 25 11 7 20 16 20 21 0 5 16 26 35 47 19 21 35 43 35 49 0 5 9 16 20 23 11 7 20 18 20 25 0 7 9 18 20 25 11 7 20 18 20 26 0 8 7 16 15 20 8 3 15 12 15 21 0 8 5 15 10 15 6 0 15 11 20 25 5 14 14 25 19 25 5 0 23 19 40 42 30 41 32 64 4 54 -12 -5 -87 10 -101 20 -2 1 13 25 34 53 20 29 34 54 31 57 -3 3 -62 6 -131 6 l-125 1 -85 -109 c-46 -60 -127 -163 -178 -229 l-95 -120 -70 -9 c-39 -5 -88 -5 -108 -2 l-36 7 3 162 3 162 -45 0 -45 0 1 70 0 70 -98 0 c-54 0 -98 -2 -99 -5z"/>
 <path d="M6040 10950 c0 -3 0 -261 0 -575 l0 -570 21 -3 c18 -3 20 -9 17 -45 l-3 -42 411 -3 c465 -3 448 -5 424 68 -7 23 -10 55 -6 79 4 24 2 42 -5 46 -6 4 -8 17 -5 30 12 46 -4 49 -322 49 l-297 1 -3 30 c-2 17 -1 62 3 101 l6 71 232 8 c128 4 266 9 307 11 l75 3 -1 91 c-1 51 -7 96 -13 104 -7 8 -9 25 -5 40 10 42 -20 46 -321 46 l-273 0 -4 73 c-2 39 -2 74 -1 76 6 9 249 21 425 20 108 -1 201 2 207 5 14 9 14 83 0 92 -8 4 -9 25 -5 60 4 34 2 55 -5 60 -7 4 -9 21 -5 43 l5 36 -429 0 c-237 0 -430 -2 -430 -5z"/>
 <path d="M7404 10949 c-3 -5 -2 -48 2 -97 5 -62 3 -91 -5 -96 -13 -8 -16 -927 -3 -940 4 -5 7 -29 7 -54 l0 -46 55 0 c47 -1 60 3 88 28 17 17 32 34 32 39 0 5 20 27 45 49 25 22 45 45 45 52 0 7 27 36 60 65 33 29 60 58 60 65 0 7 38 48 85 90 47 43 85 82 85 87 0 5 29 37 65 70 36 34 65 66 65 72 0 13 82 84 90 77 3 -3 5 -159 5 -348 l0 -342 97 -4 c109 -5 125 2 114 54 -4 20 -2 30 7 30 9 0 11 20 9 76 -3 47 0 80 7 87 13 13 16 965 3 982 -4 6 -31 10 -60 10 -51 0 -54 -2 -107 -57 -30 -32 -55 -60 -55 -64 0 -3 -29 -33 -65 -67 -36 -34 -65 -64 -65 -68 0 -4 -27 -34 -60 -67 -33 -33 -60 -63 -60 -66 0 -4 -14 -19 -31 -33 -17 -15 -35 -37 -40 -50 -5 -12 -15 -23 -24 -23 -8 0 -15 -5 -15 -10 0 -6 -31 -40 -70 -76 -38 -37 -70 -72 -70 -79 0 -6 -17 -25 -37 -42 l-38 -30 3 329 c2 181 0 336 -4 346 -4 9 -6 22 -5 29 1 6 -4 15 -11 19 -16 10 -198 12 -204 3z"/>
 <path d="M9004 10915 c5 -44 -20 -100 -45 -100 -12 0 -14 -80 -17 -530 -1 -291 0 -539 2 -550 5 -19 13 -20 108 -18 l103 2 0 43 c0 40 2 43 27 41 25 -1 26 1 21 31 -3 20 -1 36 6 40 15 10 16 747 0 763 -7 7 -9 64 -7 164 l3 154 -103 0 -104 0 6 -40z"/>
 <path d="M9784 10945 c-2 -5 -5 -37 -6 -70 -3 -52 -6 -60 -23 -61 -11 -1 -26 -2 -32 -3 -10 -1 -13 -91 -13 -415 l0 -415 -37 -3 c-38 -3 -38 -3 -41 -50 -3 -46 -5 -48 -33 -48 l-29 0 0 -69 c0 -38 -2 -75 -5 -83 -4 -10 28 -13 170 -13 154 0 174 2 170 16 -3 8 2 30 11 48 14 28 20 32 44 27 38 -7 41 8 39 215 -1 93 0 172 2 174 3 2 30 1 62 -2 38 -4 57 -10 57 -19 0 -7 14 -23 30 -36 17 -12 30 -27 30 -34 0 -7 18 -28 40 -45 22 -18 40 -38 40 -44 0 -7 16 -25 35 -39 19 -15 35 -33 35 -41 0 -8 11 -22 25 -31 14 -9 25 -22 25 -29 0 -7 20 -29 45 -49 25 -21 45 -43 45 -50 0 -7 11 -23 24 -35 22 -21 33 -23 138 -23 62 0 117 1 122 1 5 1 3 9 -5 19 -14 16 -39 59 -39 65 0 1 34 1 76 -1 43 -3 80 0 86 6 11 11 -115 169 -157 196 -14 9 -25 23 -25 30 0 8 -16 28 -35 45 -19 17 -35 33 -35 37 0 3 -34 44 -76 91 -41 46 -80 95 -86 108 -10 22 4 43 163 247 229 294 292 378 286 384 -3 3 -62 6 -131 6 l-125 1 -46 -56 c-25 -31 -45 -58 -45 -60 0 -2 -16 -22 -35 -43 -19 -21 -35 -44 -35 -51 0 -7 -4 -13 -9 -13 -9 0 -158 -187 -175 -220 -8 -14 -27 -20 -88 -25 -83 -7 -196 1 -214 16 -9 7 -10 63 -6 198 2 103 2 203 -2 222 l-6 34 -101 0 c-59 0 -103 -4 -105 -10z"/>
 <path d="M11264 10949 c-2 -4 8 -28 21 -55 14 -27 25 -52 25 -55 0 -16 -65 -31 -115 -27 -31 3 -55 1 -55 -5 0 -5 18 -43 39 -85 22 -43 42 -86 45 -97 3 -11 22 -45 41 -75 19 -30 35 -62 35 -72 0 -10 4 -26 9 -36 30 -54 163 -339 191 -407 18 -44 39 -95 47 -113 9 -18 14 -34 12 -36 -2 -3 -33 -6 -68 -9 l-64 -4 -1 -79 -1 -79 175 2 175 2 10 24 c21 51 44 67 89 61 29 -4 45 -2 52 7 6 8 38 73 71 144 90 194 273 585 374 799 49 104 87 191 85 193 -3 3 -56 5 -118 5 l-112 1 -29 -64 c-32 -73 -42 -81 -79 -75 -31 6 -49 -8 -68 -53 -6 -17 -21 -33 -33 -37 -30 -9 -323 -8 -381 2 l-49 9 -39 95 c-22 52 -45 101 -53 108 -13 14 -223 24 -231 11z m589 -525 c20 -4 37 -11 37 -16 0 -16 -72 -178 -79 -178 -6 0 -47 92 -76 172 -5 12 0 18 17 21 37 7 61 7 101 1z"/>
 <path d="M8406 9175 c4 -8 8 -15 10 -15 2 0 4 7 4 15 0 8 -4 15 -10 15 -5 0 -7 -7 -4 -15z"/>
 <path d="M8322 9135 c-26 -25 -63 -58 -82 -75 -62 -53 -124 -109 -166 -150 -22 -22 -46 -40 -52 -40 -6 0 -20 -13 -32 -30 -12 -16 -28 -30 -35 -30 -8 0 -27 -16 -42 -35 -15 -19 -33 -35 -40 -35 -7 0 -27 -18 -44 -40 -18 -22 -37 -40 -43 -40 -10 0 -26 -14 -124 -112 -21 -21 -43 -38 -49 -38 -6 0 -26 -18 -43 -40 -17 -22 -38 -40 -45 -40 -8 0 -23 -13 -35 -30 -12 -16 -28 -30 -35 -30 -8 0 -26 -16 -41 -35 -14 -19 -32 -35 -40 -35 -7 0 -26 -16 -41 -35 -15 -19 -33 -35 -40 -35 -7 0 -29 -20 -50 -45 -20 -25 -43 -45 -50 -45 -6 0 -24 -16 -39 -35 -14 -19 -31 -35 -37 -35 -7 0 -30 -18 -52 -40 -22 -22 -56 -56 -75 -75 -19 -19 -40 -35 -47 -35 -6 0 -21 -13 -33 -30 -12 -16 -27 -30 -35 -30 -7 0 -28 -18 -45 -40 -17 -22 -38 -40 -45 -40 -8 0 -29 -18 -46 -40 -18 -22 -38 -40 -45 -40 -7 0 -25 -16 -40 -35 -14 -19 -32 -35 -40 -35 -7 0 -25 -16 -40 -35 -14 -19 -32 -35 -39 -35 -7 0 -28 -18 -45 -40 -17 -22 -38 -40 -45 -40 -7 0 -25 -16 -39 -35 -15 -19 -33 -35 -40 -35 -8 0 -26 -16 -40 -35 -15 -19 -33 -35 -41 -35 -8 0 -29 -18 -46 -40 -18 -22 -38 -40 -45 -40 -7 0 -25 -16 -40 -35 -14 -19 -32 -35 -40 -35 -7 0 -25 -16 -40 -35 -14 -19 -32 -35 -40 -35 -7 0 -25 -16 -40 -35 -14 -19 -32 -35 -38 -35 -6 0 -27 -18 -46 -40 -19 -22 -40 -40 -47 -40 -6 0 -24 -16 -39 -35 -14 -19 -32 -35 -40 -35 -7 0 -26 -16 -41 -35 -15 -19 -33 -35 -40 -35 -6 0 -27 -18 -46 -40 -19 -22 -39 -40 -45 -40 -6 0 -24 -16 -39 -35 -15 -19 -33 -35 -40 -35 -6 0 -26 -18 -43 -40 -17 -22 -37 -40 -44 -40 -15 0 -66 -52 -66 -66 0 -6 -18 -25 -40 -43 -22 -17 -40 -37 -40 -42 0 -6 -13 -22 -30 -36 -16 -13 -30 -30 -30 -37 0 -7 -13 -22 -30 -34 -16 -13 -30 -29 -30 -36 0 -8 -16 -26 -35 -40 -19 -15 -35 -33 -35 -41 0 -8 -16 -26 -35 -41 -19 -14 -35 -32 -35 -40 0 -7 -16 -25 -35 -40 -19 -14 -35 -32 -35 -39 0 -7 -16 -25 -35 -39 -19 -15 -35 -33 -35 -40 0 -8 -16 -26 -35 -40 -19 -15 -35 -33 -35 -40 0 -8 -16 -26 -35 -40 -19 -15 -35 -32 -35 -39 0 -7 -16 -25 -35 -40 -19 -15 -35 -33 -35 -40 0 -7 -16 -25 -35 -40 -19 -15 -35 -34 -35 -41 0 -8 -16 -26 -35 -40 -19 -15 -35 -32 -35 -38 0 -6 -18 -26 -40 -45 -22 -19 -40 -39 -40 -44 0 -6 -13 -22 -30 -36 -16 -13 -30 -30 -30 -37 0 -7 -13 -22 -30 -34 -16 -13 -30 -29 -30 -36 0 -8 -16 -26 -35 -40 -19 -15 -35 -33 -35 -40 0 -8 -16 -26 -35 -40 -19 -15 -35 -33 -35 -41 0 -7 -13 -23 -30 -35 -16 -12 -30 -27 -30 -35 0 -7 -18 -28 -40 -45 -22 -17 -40 -38 -40 -45 0 -7 -16 -25 -35 -39 -19 -15 -35 -33 -35 -40 0 -8 -16 -26 -35 -40 -19 -15 -35 -32 -35 -39 0 -7 -16 -25 -35 -40 -19 -15 -35 -33 -35 -40 0 -7 -16 -25 -35 -40 -19 -15 -35 -32 -35 -38 0 -5 -16 -23 -35 -40 -19 -17 -35 -37 -35 -43 0 -7 -13 -22 -30 -34 -16 -13 -30 -28 -30 -36 0 -7 -18 -27 -40 -45 -22 -17 -40 -38 -40 -45 0 -7 -13 -22 -30 -34 -16 -13 -30 -28 -30 -35 0 -7 -16 -25 -35 -40 -19 -15 -35 -34 -35 -41 0 -7 -13 -22 -30 -34 -16 -13 -30 -29 -30 -36 0 -8 -16 -26 -35 -40 -19 -15 -35 -33 -35 -41 0 -7 -18 -28 -40 -45 -22 -17 -40 -37 -40 -44 0 -7 -13 -22 -30 -34 -16 -13 -30 -29 -30 -36 0 -8 -16 -26 -35 -40 -19 -15 -35 -33 -35 -40 0 -8 -16 -26 -35 -40 -19 -15 -35 -33 -35 -40 0 -8 -16 -26 -35 -40 -19 -15 -35 -32 -35 -38 0 -6 -8 -17 -17 -24 -17 -12 -17 -13 2 -20 11 -4 28 -18 38 -31 10 -13 24 -23 30 -23 7 0 18 -9 25 -20 7 -11 19 -20 27 -20 8 0 19 -9 25 -20 6 -11 17 -20 24 -20 8 0 21 -11 30 -25 9 -14 23 -25 30 -25 8 0 21 -11 30 -25 9 -14 23 -25 30 -25 8 0 21 -11 30 -25 9 -14 23 -25 31 -25 8 0 19 -9 25 -20 6 -11 17 -20 24 -20 8 0 21 -11 30 -25 9 -14 21 -25 27 -25 6 0 20 -11 31 -25 11 -14 25 -25 33 -25 7 0 15 -7 19 -15 3 -8 12 -15 20 -15 8 0 24 -13 36 -30 12 -16 27 -30 33 -30 7 0 18 -9 25 -20 7 -11 18 -20 26 -20 8 0 21 -11 30 -25 9 -14 23 -25 30 -25 8 0 21 -11 30 -25 9 -14 23 -25 30 -25 8 0 21 -11 30 -25 9 -14 22 -25 29 -25 7 0 18 -9 25 -20 7 -11 18 -20 26 -20 8 0 21 -11 30 -25 9 -14 22 -25 29 -25 7 0 18 -9 25 -20 7 -11 16 -20 21 -20 6 0 33 -22 62 -50 29 -27 58 -50 65 -50 7 0 18 -9 24 -20 6 -11 17 -20 24 -20 8 0 21 -11 30 -25 9 -14 23 -25 30 -25 8 0 21 -11 30 -25 9 -14 22 -25 29 -25 7 0 18 -9 25 -20 7 -11 18 -20 26 -20 8 0 21 -11 30 -25 9 -14 21 -25 27 -25 6 0 20 -11 31 -25 11 -14 25 -25 31 -25 7 0 18 -9 25 -20 7 -11 19 -20 27 -20 8 0 19 -9 25 -20 6 -11 17 -20 24 -20 8 0 21 -11 30 -25 9 -14 23 -25 30 -25 8 0 21 -11 30 -25 9 -14 23 -25 30 -25 8 0 21 -11 30 -25 9 -14 23 -25 31 -25 8 0 19 -9 25 -20 6 -11 17 -20 24 -20 8 0 21 -11 30 -25 9 -14 22 -25 29 -25 7 0 18 -9 25 -20 7 -11 18 -20 26 -20 8 0 21 -11 30 -25 9 -14 23 -25 30 -25 8 0 21 -11 30 -25 9 -14 21 -25 27 -25 6 0 20 -11 31 -25 11 -14 25 -25 31 -25 7 0 18 -9 25 -20 7 -11 17 -20 23 -20 6 0 20 -11 31 -25 11 -14 26 -25 33 -25 8 0 19 -9 25 -20 6 -11 17 -20 24 -20 8 0 21 -11 30 -25 9 -14 23 -25 30 -25 8 0 21 -11 30 -25 9 -14 22 -25 29 -25 7 0 18 -9 25 -20 7 -11 18 -20 26 -20 8 0 21 -11 30 -25 9 -14 21 -25 27 -25 6 0 20 -11 31 -25 11 -14 25 -25 31 -25 7 0 18 -9 25 -20 7 -11 18 -20 26 -20 8 0 21 -11 30 -25 9 -14 23 -25 30 -25 8 0 21 -11 30 -25 9 -14 22 -25 29 -25 7 0 18 -9 25 -20 7 -11 17 -20 23 -20 6 0 20 -11 31 -25 11 -14 26 -25 33 -25 8 0 19 -9 25 -20 6 -11 15 -20 20 -20 5 0 32 -22 61 -50 29 -27 57 -50 63 -50 6 0 17 -9 24 -20 7 -11 18 -20 26 -20 8 0 21 -11 30 -25 9 -14 20 -25 25 -25 4 0 25 -16 45 -35 39 -36 46 -37 141 -21 35 7 77 13 125 21 19 3 46 8 60 11 14 3 36 6 50 8 14 2 28 4 33 6 4 1 19 4 35 5 24 2 49 6 132 20 14 3 40 7 57 10 18 3 48 8 65 11 42 6 86 13 118 18 14 2 27 5 30 6 3 2 16 4 30 5 14 2 43 6 65 9 22 4 54 9 70 12 17 3 44 7 60 10 17 3 44 7 60 9 17 3 44 7 60 10 17 3 41 7 55 8 14 2 39 7 55 10 17 4 48 9 70 12 22 3 54 8 70 11 66 11 91 14 114 14 12 0 28 3 35 7 6 5 20 8 31 9 34 2 99 12 115 18 8 3 33 8 55 10 22 3 56 8 75 12 19 3 47 5 62 5 15 -1 30 4 33 9 4 6 15 8 26 5 10 -4 24 -3 31 2 7 4 24 8 38 9 34 2 111 13 133 20 10 3 32 8 50 10 18 3 46 7 62 10 17 2 41 6 55 8 14 1 27 4 30 5 3 2 21 5 40 6 48 5 81 11 105 18 11 3 40 9 65 12 25 3 59 8 75 11 17 2 41 6 55 8 14 1 27 4 30 5 3 2 21 5 40 6 19 2 46 6 60 9 84 17 219 38 240 38 14 0 30 4 37 10 7 5 17 7 23 3 6 -4 19 -3 28 1 9 4 28 8 42 9 22 2 47 6 130 20 94 17 153 25 175 26 10 0 24 4 30 9 5 4 21 8 35 8 14 -1 43 2 65 6 22 4 54 9 70 12 17 3 41 7 55 9 50 9 134 22 180 29 14 2 27 5 30 6 3 2 16 4 30 5 23 2 43 5 135 21 17 3 40 6 53 8 12 2 25 5 27 8 3 2 -11 28 -30 58 -19 29 -32 57 -29 61 5 9 -73 169 -110 224 -14 21 -23 41 -21 46 6 9 -99 224 -115 234 -6 3 -8 10 -5 15 6 10 -109 245 -125 255 -6 3 -8 10 -5 14 4 8 -602 1275 -633 1321 -9 14 -15 31 -14 38 2 7 -4 15 -12 18 -9 3 -14 10 -11 14 6 10 -98 224 -119 246 -15 14 -20 28 -17 46 1 11 -88 191 -98 197 -12 9 -41 68 -35 73 6 6 -82 189 -95 197 -13 9 -41 68 -35 74 5 5 -56 127 -101 202 -13 21 -21 43 -19 47 3 5 -4 25 -16 45 -17 30 -20 45 -15 85 5 32 3 53 -5 63 -8 10 -10 30 -5 61 4 30 2 50 -5 60 -8 9 -10 29 -6 58 5 29 3 47 -5 51 -8 5 -9 26 -5 65 5 39 3 61 -4 65 -8 5 -10 29 -5 75 5 45 3 70 -4 74 -7 5 -9 26 -5 61 5 37 3 59 -6 70 -8 10 -10 32 -5 74 5 40 3 61 -5 66 -8 5 -9 23 -5 56 5 33 3 54 -5 64 -8 10 -10 31 -5 64 4 33 3 51 -5 56 -8 5 -10 24 -5 60 4 36 2 55 -5 60 -8 5 -10 27 -5 70 4 43 3 65 -5 70 -7 5 -9 25 -4 61 4 37 2 59 -6 69 -9 10 -10 34 -5 79 4 44 3 66 -5 71 -8 5 -9 23 -5 56 5 33 3 54 -5 64 -8 10 -10 30 -5 61 4 30 2 50 -5 60 -8 9 -10 30 -5 60 4 30 2 50 -5 60 -8 9 -10 32 -6 68 5 36 3 56 -4 61 -8 5 -9 27 -5 70 5 42 3 65 -4 70 -8 4 -9 23 -5 56 4 33 3 54 -6 64 -9 11 -11 33 -6 74 5 40 3 62 -5 66 -7 5 -9 25 -4 60 4 36 2 55 -6 60 -8 5 -9 26 -5 65 4 37 3 61 -4 65 -9 6 -11 28 -10 187 0 37 -5 70 -11 73 -6 5 -8 27 -3 61 4 37 2 59 -6 69 -9 11 -11 33 -6 74 5 41 3 62 -5 66 -7 5 -9 24 -5 57 5 33 3 55 -5 64 -7 9 -9 31 -5 63 4 33 3 52 -5 57 -8 4 -9 25 -5 64 4 37 3 61 -4 65 -6 3 -10 34 -10 68 0 103 -4 147 -13 147 -5 0 -30 -20 -55 -45z m-315 -995 c1 -25 4 -79 7 -120 3 -41 9 -113 12 -160 3 -47 6 -113 5 -148 -1 -35 2 -68 6 -75 4 -7 9 -41 10 -77 1 -36 5 -99 8 -140 3 -41 8 -106 10 -145 3 -38 7 -101 10 -140 12 -178 17 -245 21 -315 4 -81 10 -171 19 -290 3 -41 8 -106 10 -145 3 -38 7 -99 10 -135 2 -36 7 -105 10 -155 4 -49 8 -124 11 -165 3 -41 5 -103 4 -138 0 -35 3 -68 7 -75 4 -7 9 -41 10 -77 1 -36 4 -99 7 -140 10 -125 15 -201 20 -290 4 -70 11 -97 39 -155 19 -38 64 -133 101 -210 84 -174 188 -387 277 -570 38 -77 71 -147 74 -155 3 -8 9 -22 13 -30 5 -8 30 -60 57 -115 26 -55 51 -107 56 -115 5 -8 14 -26 20 -40 5 -14 38 -83 73 -155 35 -71 93 -193 130 -270 70 -146 173 -357 282 -580 35 -71 66 -137 69 -145 3 -8 9 -22 14 -30 12 -21 109 -222 115 -240 3 -8 10 -22 15 -30 6 -11 76 -153 99 -202 3 -6 -57 -26 -103 -33 -11 -2 -49 -9 -85 -15 -117 -20 -125 -21 -150 -21 -14 -1 -30 -5 -36 -10 -6 -5 -19 -7 -28 -3 -9 3 -22 2 -29 -4 -6 -6 -23 -10 -37 -10 -22 1 -43 -2 -130 -17 -59 -11 -145 -24 -180 -29 -14 -1 -28 -4 -32 -6 -5 -1 -20 -4 -35 -5 -16 -1 -46 -5 -68 -9 -22 -4 -49 -8 -60 -10 -11 -2 -31 -6 -45 -10 -14 -4 -43 -9 -65 -11 -22 -3 -53 -7 -70 -10 -70 -10 -93 -13 -140 -20 -27 -3 -58 -8 -68 -11 -10 -3 -31 -7 -47 -10 -17 -2 -45 -7 -62 -10 -18 -3 -45 -5 -60 -5 -15 1 -30 -4 -33 -9 -4 -6 -15 -8 -26 -5 -10 4 -24 3 -31 -2 -7 -4 -26 -8 -43 -10 -16 -1 -41 -4 -55 -7 -14 -2 -45 -7 -70 -10 -25 -4 -54 -9 -65 -13 -11 -3 -36 -8 -55 -10 -50 -5 -84 -9 -90 -13 -3 -1 -18 -4 -35 -5 -16 -2 -43 -6 -60 -9 -171 -29 -209 -35 -245 -40 -14 -1 -28 -4 -32 -6 -5 -1 -20 -4 -35 -5 -16 -1 -46 -5 -68 -9 -22 -4 -49 -8 -60 -10 -11 -2 -29 -6 -40 -9 -25 -8 -111 -19 -144 -18 -12 1 -28 -2 -35 -6 -6 -5 -20 -9 -31 -10 -11 -1 -36 -4 -55 -7 -79 -9 -135 -18 -143 -23 -4 -2 -24 -7 -45 -9 -20 -3 -53 -7 -72 -10 -19 -2 -44 -4 -55 -5 -10 0 -24 -4 -30 -9 -5 -4 -21 -8 -35 -8 -33 1 -120 -11 -132 -18 -5 -3 -21 8 -35 25 -14 17 -31 31 -37 31 -6 0 -17 9 -24 20 -7 11 -18 20 -26 20 -8 0 -21 11 -30 25 -9 14 -23 25 -31 25 -8 0 -19 9 -25 20 -6 11 -15 20 -20 20 -5 0 -20 10 -33 23 -13 12 -36 31 -50 42 -14 11 -50 41 -79 68 -28 26 -58 47 -65 47 -7 0 -17 9 -23 20 -6 11 -17 20 -24 20 -8 0 -21 11 -30 25 -9 14 -23 25 -31 25 -8 0 -19 9 -25 20 -6 11 -16 20 -22 20 -6 0 -21 10 -34 23 -61 59 -70 67 -79 67 -6 0 -16 9 -23 20 -7 11 -17 20 -23 20 -6 0 -20 11 -31 25 -11 14 -26 25 -33 25 -8 0 -19 9 -25 20 -6 11 -16 20 -22 20 -6 0 -21 10 -34 22 -61 60 -70 68 -81 68 -6 0 -18 11 -27 25 -9 14 -20 25 -25 25 -4 0 -27 18 -51 40 -24 22 -49 40 -56 40 -6 0 -19 11 -28 25 -9 14 -23 25 -31 25 -8 0 -19 8 -24 18 -5 10 -29 32 -53 48 -24 16 -49 37 -56 47 -7 9 -19 17 -26 17 -8 0 -21 11 -30 25 -9 14 -22 25 -29 25 -7 0 -18 9 -25 20 -7 11 -18 20 -25 20 -7 0 -18 9 -25 20 -7 11 -19 20 -27 20 -8 0 -22 11 -31 25 -9 14 -21 25 -26 25 -5 0 -26 16 -46 36 -20 20 -49 42 -63 50 -15 7 -29 20 -32 29 -4 8 -12 15 -18 15 -6 0 -22 10 -35 23 -61 59 -70 67 -79 67 -6 0 -16 9 -23 20 -7 11 -18 20 -26 20 -8 0 -21 11 -30 25 -9 14 -21 25 -27 25 -5 0 -29 18 -51 40 -23 22 -45 40 -49 40 -3 0 -19 11 -35 25 -16 14 -42 35 -57 47 -15 13 -37 33 -49 46 -12 12 -27 22 -34 22 -8 0 -18 9 -24 20 -6 11 -17 20 -24 20 -8 0 -21 11 -30 25 -9 14 -21 25 -28 25 -6 0 -21 10 -34 23 -61 59 -70 67 -79 67 -6 0 -16 9 -23 20 -7 11 -17 20 -23 20 -7 0 -22 10 -35 23 -60 58 -70 67 -78 67 -8 0 -56 47 -56 55 0 4 56 65 110 120 17 17 30 34 30 39 0 5 15 24 32 42 18 19 48 50 66 71 17 21 50 58 72 83 22 25 54 61 70 80 66 76 112 126 140 155 17 17 30 35 30 41 0 7 16 24 35 38 19 15 35 33 35 41 0 8 14 24 30 37 17 12 30 27 30 34 0 7 16 26 35 41 19 15 35 33 35 39 0 6 18 26 40 45 22 19 40 38 40 43 0 6 13 24 30 40 16 17 46 47 65 67 19 19 35 40 35 46 0 6 16 23 35 37 19 15 35 32 35 38 0 7 14 26 30 42 29 29 61 65 140 155 19 22 51 58 70 80 19 22 51 58 70 81 19 22 52 56 73 77 20 20 37 41 37 48 0 6 14 21 30 33 17 13 30 29 30 36 0 8 16 26 35 40 19 15 35 33 35 41 0 7 14 23 30 35 17 12 30 27 30 34 0 7 18 28 40 47 22 19 40 39 40 45 0 5 14 20 30 32 17 13 30 29 30 37 0 8 16 26 35 41 19 14 35 32 35 39 0 7 16 25 35 39 19 15 35 32 35 38 0 7 15 26 33 44 83 84 117 122 117 133 0 6 8 14 18 18 16 6 41 27 128 113 22 22 46 40 52 40 6 0 26 18 45 40 19 22 39 40 45 40 6 0 25 18 42 40 17 22 38 40 45 40 7 0 28 18 45 40 17 22 38 40 45 40 8 0 26 16 41 35 14 19 31 35 37 35 7 0 29 17 49 38 21 20 58 55 83 77 25 22 62 57 83 78 21 20 42 37 49 37 6 0 23 16 37 35 15 19 33 35 40 35 7 0 29 17 50 38 20 20 57 55 82 77 25 22 63 57 84 78 22 20 43 37 47 37 7 0 29 21 125 118 23 23 47 42 54 42 7 0 22 14 34 30 12 17 28 30 35 30 8 0 30 20 51 45 20 25 42 45 50 45 7 0 25 16 40 35 14 19 32 35 39 35 7 0 28 18 45 40 17 22 37 40 44 40 7 0 27 18 45 40 17 22 38 40 46 40 7 0 23 14 35 30 12 17 27 30 35 30 7 0 28 18 45 40 17 22 38 40 45 40 8 0 29 18 46 40 18 22 38 40 45 40 7 0 27 18 44 40 17 22 38 40 45 40 8 0 26 16 41 35 14 19 32 35 40 35 7 0 25 16 40 36 30 39 57 54 89 51 16 -2 20 -10 22 -47z"/>
 <path d="M7970 8159 c0 -5 5 -7 10 -4 6 3 10 8 10 11 0 2 -4 4 -10 4 -5 0 -10 -5 -10 -11z"/>
 <path d="M3285 4189 c-11 -17 1 -21 15 -4 8 9 8 15 2 15 -6 0 -14 -5 -17 -11z"/>
 <path d="M3083 3953 c4 -3 10 -3 14 0 3 4 0 7 -7 7 -7 0 -10 -3 -7 -7z"/>
 </g>
<g id="layer103" fill="#322e29" stroke="none">
 <path d="M3207 10968 c-7 -4 -26 -8 -44 -8 -17 0 -35 -4 -38 -10 -3 -5 -14 -10 -23 -10 -72 -1 -310 -190 -312 -248 0 -7 -11 -30 -25 -53 -14 -22 -23 -44 -19 -50 3 -5 0 -17 -7 -25 -15 -18 -21 -72 -20 -199 1 -131 1 -134 11 -140 5 -3 7 -12 4 -19 -3 -8 -1 -17 5 -21 6 -3 11 -15 11 -25 0 -10 17 -46 38 -80 20 -33 42 -69 47 -78 17 -26 93 -102 104 -102 5 0 11 -7 15 -15 3 -8 12 -15 19 -15 8 0 20 -7 27 -15 7 -8 19 -15 27 -15 8 0 32 -14 53 -30 160 -127 467 -148 669 -46 113 58 212 180 258 320 39 121 37 248 -6 375 -34 101 -43 115 -137 230 -87 105 -137 160 -148 160 -4 1 -25 15 -46 31 -21 17 -43 30 -49 30 -7 0 -31 9 -53 20 -23 11 -51 20 -63 20 -12 0 -25 3 -29 8 -14 13 -249 22 -269 10z m393 -339 c40 -17 54 -30 76 -73 24 -44 27 -64 30 -156 1 -58 -2 -110 -7 -116 -5 -7 -9 -16 -8 -20 1 -5 -3 -22 -9 -37 -7 -16 -12 -35 -12 -42 0 -8 -11 -26 -25 -41 -14 -15 -25 -32 -25 -38 0 -15 -92 -86 -111 -86 -8 0 -23 -6 -34 -13 -11 -8 -52 -19 -90 -26 -62 -12 -80 -11 -148 4 -89 20 -108 35 -136 109 -41 113 -34 286 16 378 35 65 111 132 176 157 76 29 239 29 307 0z"/>
 <path d="M4550 10952 l-95 -3 -3 -227 c-1 -125 -6 -344 -10 -487 l-7 -260 -60 -2 c-33 -2 -65 -5 -71 -7 -7 -3 -10 -31 -9 -77 3 -80 11 -91 67 -87 32 3 33 2 36 -40 l3 -42 167 2 167 3 5 235 5 235 85 3 c96 3 130 -2 130 -21 0 -7 14 -23 30 -36 17 -12 28 -26 25 -30 -2 -5 11 -21 30 -35 19 -15 35 -33 35 -40 0 -8 16 -26 35 -40 19 -15 35 -33 35 -41 0 -8 16 -26 35 -41 19 -14 35 -30 35 -35 0 -4 31 -41 70 -81 l69 -73 111 -3 c91 -3 110 -1 110 11 0 8 -7 21 -17 28 -9 8 -22 28 -30 44 -31 65 -45 85 -73 105 -17 12 -30 27 -30 35 0 7 -18 28 -40 45 -22 17 -40 36 -40 42 0 6 -18 30 -41 52 -87 88 -99 101 -99 113 0 6 -8 18 -19 25 -19 14 -2 37 344 475 72 90 84 113 64 114 -46 2 -115 12 -119 16 -3 3 5 12 18 20 12 9 22 20 22 25 0 6 9 23 20 38 11 16 17 31 12 34 -4 3 -56 6 -113 7 -108 1 -149 -8 -149 -36 0 -8 -9 -19 -20 -25 -11 -6 -20 -17 -20 -24 0 -8 -7 -16 -15 -20 -8 -3 -15 -12 -15 -20 0 -9 -9 -20 -20 -26 -11 -6 -20 -17 -20 -24 0 -8 -7 -16 -15 -20 -8 -3 -15 -12 -15 -20 0 -9 -9 -20 -20 -26 -11 -6 -20 -16 -20 -23 0 -7 -9 -18 -20 -25 -11 -7 -20 -18 -20 -26 0 -8 -7 -16 -15 -20 -8 -3 -15 -12 -15 -20 0 -9 -9 -20 -20 -26 -11 -6 -20 -15 -20 -20 0 -5 -11 -20 -25 -34 -19 -19 -38 -26 -98 -31 -41 -4 -89 -4 -106 0 l-30 6 -3 157 -3 157 -40 5 -40 5 0 67 c-1 37 -3 69 -5 70 -3 2 -48 2 -100 0z"/>
 <path d="M6455 10950 c-327 -4 -420 -8 -419 -17 1 -7 2 -263 3 -569 1 -542 1 -556 20 -561 14 -4 21 -15 23 -42 l3 -36 406 -3 407 -2 3 32 c2 18 0 76 -6 128 l-10 95 -305 5 -305 5 -3 108 -3 107 219 0 c120 0 260 3 311 7 l92 6 -2 86 c-2 47 -7 92 -12 98 -5 7 -6 24 -3 38 5 21 2 27 -19 35 -15 6 -147 10 -306 10 l-280 0 3 83 3 82 105 6 c58 4 198 7 311 8 182 1 208 3 213 17 4 10 2 63 -4 119 -6 55 -10 114 -8 130 2 15 -1 28 -7 29 -5 1 -199 -1 -430 -4z"/>
 <path d="M7414 10948 c-9 -14 -17 -951 -9 -1094 l7 -134 52 0 c50 1 52 2 110 68 32 37 149 164 260 282 111 118 230 248 266 288 35 39 70 72 77 72 10 0 13 -71 13 -355 l0 -355 95 0 95 0 6 40 c4 22 11 43 15 46 5 3 9 261 9 573 l0 568 -39 7 c-39 6 -40 5 -138 -96 -54 -56 -124 -127 -155 -158 -32 -31 -58 -62 -58 -68 0 -6 -25 -32 -55 -59 -30 -26 -55 -53 -55 -59 0 -6 -28 -38 -62 -71 -35 -33 -77 -78 -95 -100 -17 -22 -54 -59 -82 -82 l-51 -43 0 79 c0 168 -9 646 -13 649 -8 8 -188 10 -193 2z"/>
 <path d="M9007 10954 c-4 -4 -4 -30 -1 -59 7 -53 -9 -85 -42 -85 -12 0 -14 -79 -14 -545 l0 -545 99 0 100 0 3 43 c2 35 7 43 26 45 l22 3 0 570 0 569 -79 0 c-44 0 -86 2 -93 5 -8 3 -17 3 -21 -1z"/>
 <path d="M10640 10930 c-16 -14 -30 -31 -30 -37 0 -7 -4 -13 -8 -13 -5 0 -23 -22 -40 -49 -18 -27 -39 -51 -47 -55 -8 -3 -15 -11 -15 -19 0 -7 -16 -28 -35 -47 -19 -19 -35 -40 -35 -46 0 -7 -7 -14 -15 -18 -8 -3 -15 -12 -15 -20 0 -9 -9 -20 -20 -26 -11 -6 -20 -17 -20 -25 0 -8 -4 -15 -9 -15 -5 0 -18 -15 -29 -34 -19 -32 -23 -34 -95 -40 -41 -4 -112 -4 -157 0 l-81 7 0 91 c1 50 -1 153 -4 229 l-6 138 -97 -3 -97 -3 -5 -65 c-4 -56 -8 -65 -25 -66 -11 -1 -26 -2 -32 -3 -10 -1 -13 -91 -13 -414 l0 -413 -37 -10 c-37 -9 -38 -10 -35 -51 l4 -43 -36 0 -36 0 0 -80 0 -80 164 0 165 0 3 43 c3 41 4 42 40 45 l36 3 6 152 c3 84 8 171 12 195 l6 42 53 0 c47 0 56 -4 77 -29 13 -15 106 -123 207 -240 l184 -211 107 0 c59 0 110 3 113 6 4 4 -5 20 -18 36 -27 32 -24 52 6 43 11 -4 44 -3 74 0 44 6 55 11 55 26 0 10 -13 28 -30 41 -16 12 -30 27 -30 34 0 6 -11 19 -25 28 -14 9 -25 22 -25 30 0 7 -18 27 -40 45 -22 17 -40 37 -40 44 0 6 -20 32 -45 57 -113 112 -125 126 -125 137 0 7 -6 16 -13 20 -40 26 -44 94 -6 121 11 7 19 19 19 26 0 8 7 16 15 20 8 3 15 12 15 20 0 7 7 16 15 20 8 3 15 12 15 20 0 9 9 20 20 26 11 6 20 17 20 25 0 8 9 19 20 25 11 6 20 15 20 21 0 13 68 102 86 112 8 4 14 14 14 22 0 8 9 19 20 25 11 6 20 17 20 24 0 8 7 16 15 20 8 3 15 12 15 19 0 8 13 27 30 43 16 16 30 34 30 40 0 7 7 14 15 18 8 3 15 13 15 23 0 16 -11 18 -115 18 -107 0 -116 -2 -145 -25z"/>
 <path d="M11277 10925 c3 -16 15 -45 25 -63 11 -18 18 -35 16 -37 -8 -8 -52 -13 -110 -14 l-57 -1 23 -52 c39 -87 80 -175 169 -364 168 -355 217 -468 217 -498 0 -11 -10 -16 -34 -16 -18 0 -48 -3 -65 -6 l-31 -6 0 -74 0 -74 168 0 167 1 28 45 c25 42 30 46 57 40 17 -3 40 -2 53 3 23 9 77 96 77 125 0 9 14 38 30 64 17 27 30 53 30 58 0 5 21 52 47 104 56 114 82 170 124 273 18 43 39 83 46 89 7 6 13 17 13 25 0 8 6 27 14 41 8 15 26 56 41 92 14 36 39 85 55 110 24 38 46 86 66 150 4 13 -10 15 -98 13 -57 -1 -105 -3 -108 -3 -7 0 -47 -79 -55 -107 -4 -16 -16 -24 -43 -28 -57 -10 -60 -12 -81 -53 l-20 -39 -112 -6 c-133 -7 -319 2 -337 16 -7 5 -20 26 -28 46 -33 74 -43 97 -59 134 -9 20 -19 37 -23 38 -4 0 -53 1 -109 2 l-102 2 6 -30z m620 -508 c10 -11 -74 -207 -89 -207 -5 0 -11 14 -15 30 -3 17 -10 33 -14 36 -5 3 -9 13 -9 22 0 9 -11 39 -25 66 -13 27 -22 53 -20 57 5 8 163 4 172 -4z"/>
 <path d="M1776 10941 c-4 -5 -7 -221 -9 -480 -1 -303 -6 -472 -12 -474 -5 -2 -84 -5 -175 -6 -90 -1 -169 -6 -174 -11 -5 -5 -11 -43 -14 -84 l-5 -76 44 -2 c24 -1 70 -1 101 1 l57 2 6 -45 7 -46 449 0 c246 0 450 3 452 8 2 4 2 39 -1 79 l-4 72 -72 3 -71 3 -3 35 c-5 51 -23 60 -124 60 l-88 0 -2 417 -3 416 -77 -2 -78 -2 0 55 c0 87 1 86 -105 86 -52 0 -96 -4 -99 -9z"/>
 <path d="M8288 9098 c-45 -40 -96 -85 -113 -99 -16 -15 -95 -84 -175 -155 -80 -71 -179 -158 -220 -194 -41 -36 -77 -67 -80 -71 -3 -3 -99 -88 -215 -189 -214 -188 -363 -319 -425 -374 -19 -17 -186 -164 -370 -326 -184 -162 -409 -360 -500 -440 -91 -81 -239 -211 -329 -291 -383 -335 -437 -383 -451 -399 -35 -39 -1065 -1218 -1350 -1545 -129 -149 -249 -286 -266 -305 -77 -86 -281 -319 -529 -605 -148 -170 -279 -321 -291 -334 l-22 -24 126 -104 c70 -57 172 -141 227 -187 55 -45 242 -199 415 -341 674 -554 767 -631 840 -691 41 -34 235 -193 430 -354 195 -160 384 -315 420 -345 77 -64 334 -275 509 -419 68 -55 147 -120 175 -143 34 -28 61 -42 81 -43 16 0 108 13 205 30 190 32 494 81 800 130 195 31 383 61 770 125 207 34 431 70 770 124 102 17 282 46 400 65 118 19 303 49 410 66 107 18 287 47 400 65 113 19 250 41 305 50 55 9 100 17 101 18 1 1 -43 94 -97 207 -169 351 -255 529 -345 715 -48 99 -339 702 -647 1340 l-559 1160 -13 140 c-8 77 -23 264 -34 415 -12 151 -35 448 -51 660 -16 212 -46 590 -65 840 -57 740 -65 842 -70 900 -2 30 -11 150 -20 265 -8 116 -22 291 -30 390 -8 99 -17 216 -21 260 -3 44 -7 81 -9 83 -2 2 -41 -29 -87 -70z m-278 -940 c1 -24 3 -70 5 -103 16 -216 35 -494 40 -570 3 -49 8 -121 10 -160 3 -38 12 -171 20 -295 8 -124 17 -252 20 -285 2 -33 7 -100 10 -150 3 -49 8 -121 10 -160 3 -38 12 -171 20 -295 8 -124 19 -281 25 -350 5 -69 12 -165 14 -215 3 -49 11 -169 17 -265 l11 -175 248 -515 c387 -805 936 -1941 1064 -2204 100 -206 125 -265 114 -266 -2 0 -79 -14 -173 -30 -93 -17 -217 -37 -275 -45 -58 -9 -170 -26 -250 -39 -80 -14 -235 -39 -345 -56 -110 -17 -297 -47 -415 -66 -118 -19 -300 -48 -405 -65 -104 -17 -271 -43 -370 -59 -99 -16 -281 -45 -405 -65 -124 -20 -263 -42 -310 -50 -47 -7 -128 -20 -180 -29 -52 -8 -125 -20 -162 -26 -61 -9 -69 -9 -90 9 -32 27 -188 154 -428 349 -113 91 -210 171 -216 177 -6 5 -78 64 -159 130 -82 66 -228 185 -325 265 -98 80 -244 199 -325 264 -81 66 -152 125 -159 131 -6 6 -42 36 -81 67 -38 31 -116 93 -172 139 -56 46 -191 156 -299 244 -108 88 -228 186 -268 219 -39 32 -101 82 -138 112 -37 30 -69 58 -73 64 -8 13 0 27 65 101 50 57 325 371 389 444 14 17 116 134 226 260 109 127 202 232 205 235 3 3 48 55 100 115 52 61 97 112 100 115 6 6 133 150 210 240 30 35 60 68 65 74 6 6 37 43 71 81 557 644 636 732 714 800 19 17 136 120 260 229 124 110 256 227 294 260 38 34 74 66 80 71 6 6 52 46 101 89 202 178 230 202 306 271 30 28 86 77 124 110 38 33 130 114 205 180 74 66 191 170 260 231 69 60 225 199 348 307 247 218 272 232 272 155z"/>
 </g>
<g id="layer104" fill="#dc9f47" stroke="none">
 <path d="M3150 10954 c-213 -57 -360 -203 -409 -406 -26 -104 -28 -244 -5 -332 36 -142 134 -277 250 -346 33 -18 76 -47 96 -62 162 -125 467 -145 667 -44 113 58 212 180 258 320 39 122 37 247 -7 378 -27 80 -43 110 -98 180 -160 200 -251 268 -410 308 -94 24 -261 26 -342 4z m458 -329 c72 -33 93 -81 99 -225 4 -90 2 -114 -17 -170 -12 -36 -35 -82 -50 -104 -41 -56 -123 -113 -189 -133 -74 -22 -192 -22 -258 1 -47 16 -55 22 -78 71 -55 111 -54 305 2 407 35 65 111 132 176 157 40 15 77 20 157 20 91 1 112 -2 158 -24z"/>
 <path d="M5202 10795 c-69 -88 -153 -195 -186 -237 l-61 -78 -85 0 c-140 0 -129 -13 -132 169 l-3 156 -40 5 -40 5 -5 65 -5 65 -84 3 c-46 2 -88 -1 -92 -5 -4 -4 -11 -222 -14 -483 -4 -261 -9 -477 -12 -480 -3 -3 -35 -7 -71 -10 l-67 -5 0 -75 0 -75 45 -5 c45 -5 45 -5 48 -48 l3 -42 167 2 167 3 5 235 5 235 93 3 c51 1 99 -1 106 -5 8 -4 47 -47 87 -94 216 -254 314 -361 336 -370 13 -5 67 -9 119 -9 73 0 94 3 94 14 0 7 -7 20 -17 27 -9 8 -22 28 -29 44 -11 27 -57 81 -265 316 -33 37 -68 77 -78 90 l-19 24 149 190 c82 105 179 227 214 272 72 90 84 113 64 114 -37 2 -114 11 -117 14 -2 2 13 26 34 53 20 28 36 54 35 58 0 5 -51 11 -112 14 l-112 5 -125 -160z"/>
 <path d="M7450 10951 l-35 -6 -6 -205 c-9 -290 -10 -807 -2 -922 l6 -98 51 0 c50 1 52 2 110 68 32 37 149 164 260 282 111 118 230 248 266 288 35 39 70 72 77 72 10 0 13 -71 13 -355 l0 -355 95 0 95 0 6 40 c4 22 11 43 15 46 5 3 9 261 9 573 l0 569 -32 5 c-18 2 -40 1 -48 -3 -16 -9 -157 -152 -236 -240 -137 -153 -456 -490 -464 -490 -10 0 -20 247 -20 503 0 165 -3 219 -12 222 -28 8 -115 12 -148 6z"/>
 <path d="M9014 10951 c-2 -2 -4 -28 -4 -57 0 -54 -17 -84 -46 -84 -12 0 -14 -79 -14 -545 l0 -545 99 0 100 0 3 43 c2 35 7 43 26 45 l22 3 0 569 0 569 -91 3 c-50 2 -93 1 -95 -1z"/>
 <path d="M10625 10905 c-24 -27 -108 -133 -188 -235 l-144 -185 -147 2 c-81 0 -149 3 -150 5 -5 5 -16 253 -16 361 l0 98 -92 -3 -93 -3 -5 -65 c-5 -61 -7 -65 -30 -67 -14 0 -31 -1 -38 -2 -10 -1 -12 -88 -12 -418 l1 -418 -33 -5 c-31 -5 -33 -8 -36 -47 -3 -42 -4 -43 -38 -43 l-34 0 0 -80 0 -80 164 0 165 0 3 43 c3 41 4 42 41 45 l37 3 1 132 c1 73 4 159 8 192 l6 60 55 3 c50 3 57 1 80 -26 14 -16 108 -124 209 -240 l184 -212 107 0 c59 0 110 3 113 6 4 4 -5 20 -18 36 -14 16 -23 34 -19 39 3 5 39 9 80 9 41 0 74 4 74 9 0 13 -181 225 -318 372 -60 64 -101 121 -102 139 0 8 77 114 171 235 232 299 279 362 279 374 0 6 -45 11 -111 13 l-112 3 -42 -50z"/>
 <path d="M12240 10950 c-5 -3 -21 -33 -35 -67 -25 -57 -31 -63 -64 -69 -56 -9 -59 -11 -80 -52 l-20 -39 -108 -6 c-59 -3 -163 -3 -230 0 l-122 6 -41 101 c-23 56 -49 107 -58 114 -10 7 -50 12 -109 12 -105 0 -105 0 -72 -75 11 -25 19 -48 17 -51 -8 -7 -53 -13 -110 -13 l-57 -1 23 -52 c39 -87 80 -175 169 -364 168 -355 217 -468 217 -498 0 -11 -10 -16 -34 -16 -18 0 -48 -3 -65 -6 l-31 -6 0 -74 0 -74 168 0 167 1 27 44 c26 44 29 45 78 45 50 0 51 1 69 43 10 23 35 78 56 122 21 44 102 220 182 390 79 171 173 370 209 443 35 73 64 135 64 137 0 6 -201 11 -210 5z m-343 -533 c9 -10 -74 -207 -87 -207 -12 0 -93 197 -86 208 6 10 163 9 173 -1z"/>
 <path d="M1777 10943 c-3 -5 -7 -221 -9 -480 -2 -328 -6 -474 -14 -477 -6 -2 -84 -5 -174 -6 -90 0 -167 -3 -172 -6 -4 -3 -8 -41 -8 -85 l0 -79 94 0 95 0 7 -45 6 -45 449 0 c246 0 450 3 452 8 2 4 2 39 -1 79 l-4 72 -72 3 -71 3 -3 35 c-5 51 -23 60 -124 60 l-88 0 -2 417 -3 416 -77 -2 -78 -2 0 55 c0 87 1 86 -105 86 -52 0 -96 -3 -98 -7z"/>
 <path d="M6047 10943 c-4 -3 -7 -259 -7 -569 0 -547 1 -562 19 -567 14 -3 21 -15 23 -43 l3 -39 407 -3 407 -2 3 32 c5 49 -12 201 -23 213 -6 6 -129 12 -307 15 l-297 5 -3 108 -3 107 219 0 c120 0 260 3 310 6 l92 7 0 41 c0 75 -22 201 -38 214 -12 9 -87 12 -299 12 l-284 0 3 83 3 82 105 6 c58 4 198 7 312 8 245 1 224 -16 205 166 l-12 120 -416 3 c-228 1 -418 -1 -422 -5z"/>
 <path d="M8288 9098 c-45 -40 -96 -85 -113 -99 -16 -15 -95 -84 -175 -155 -80 -71 -179 -158 -220 -194 -41 -36 -77 -67 -80 -71 -3 -3 -99 -88 -215 -189 -214 -188 -363 -319 -425 -374 -19 -17 -186 -164 -370 -326 -184 -162 -409 -360 -500 -440 -91 -81 -239 -211 -329 -291 -383 -335 -437 -383 -451 -399 -35 -39 -1065 -1218 -1350 -1545 -129 -149 -249 -286 -266 -305 -77 -86 -281 -319 -529 -605 -148 -170 -279 -321 -291 -334 l-22 -24 126 -104 c70 -57 172 -141 227 -187 55 -45 242 -199 415 -341 674 -554 767 -631 840 -691 41 -34 235 -193 430 -354 195 -160 384 -315 420 -345 77 -64 334 -275 509 -419 68 -55 147 -120 175 -143 34 -28 61 -42 81 -43 16 0 108 13 205 30 190 32 494 81 800 130 195 31 383 61 770 125 207 34 431 70 770 124 102 17 282 46 400 65 118 19 303 49 410 66 107 18 287 47 400 65 113 19 250 41 305 50 55 9 100 17 101 18 1 1 -43 94 -97 207 -169 351 -255 529 -345 715 -48 99 -339 702 -647 1340 l-559 1160 -13 140 c-8 77 -23 264 -34 415 -12 151 -35 448 -51 660 -16 212 -46 590 -65 840 -57 740 -65 842 -70 900 -2 30 -11 150 -20 265 -8 116 -22 291 -30 390 -8 99 -17 216 -21 260 -3 44 -7 81 -9 83 -2 2 -41 -29 -87 -70z m-278 -940 c1 -24 3 -70 5 -103 16 -216 35 -494 40 -570 3 -49 8 -121 10 -160 3 -38 12 -171 20 -295 8 -124 17 -252 20 -285 2 -33 7 -100 10 -150 3 -49 8 -121 10 -160 3 -38 12 -171 20 -295 8 -124 19 -281 25 -350 5 -69 12 -165 14 -215 3 -49 11 -169 17 -265 l11 -175 248 -515 c387 -805 936 -1941 1064 -2204 100 -206 125 -265 114 -266 -2 0 -79 -14 -173 -30 -93 -17 -217 -37 -275 -45 -58 -9 -170 -26 -250 -39 -80 -14 -235 -39 -345 -56 -110 -17 -297 -47 -415 -66 -118 -19 -300 -48 -405 -65 -104 -17 -271 -43 -370 -59 -99 -16 -281 -45 -405 -65 -124 -20 -263 -42 -310 -50 -47 -7 -128 -20 -180 -29 -52 -8 -125 -20 -162 -26 -61 -9 -69 -9 -90 9 -32 27 -188 154 -428 349 -113 91 -210 171 -216 177 -6 5 -78 64 -159 130 -82 66 -228 185 -325 265 -98 80 -244 199 -325 264 -81 66 -152 125 -159 131 -6 6 -42 36 -81 67 -38 31 -116 93 -172 139 -56 46 -191 156 -299 244 -108 88 -228 186 -268 219 -39 32 -101 82 -138 112 -37 30 -69 58 -73 64 -8 13 0 27 65 101 50 57 325 371 389 444 14 17 116 134 226 260 109 127 202 232 205 235 3 3 48 55 100 115 52 61 97 112 100 115 6 6 133 150 210 240 30 35 60 68 65 74 6 6 37 43 71 81 557 644 636 732 714 800 19 17 136 120 260 229 124 110 256 227 294 260 38 34 74 66 80 71 6 6 52 46 101 89 202 178 230 202 306 271 30 28 86 77 124 110 38 33 130 114 205 180 74 66 191 170 260 231 69 60 225 199 348 307 247 218 272 232 272 155z"/>
 </g>
<g id="layer105" fill="#efac4c" stroke="none">
 <path d="M3150 10954 c-273 -74 -430 -286 -430 -584 0 -161 49 -292 150 -403 46 -50 175 -142 200 -142 3 0 19 -9 35 -21 67 -46 107 -66 142 -70 21 -3 42 -9 47 -14 4 -4 15 -6 22 -3 8 3 22 2 31 -2 21 -8 192 -9 201 -1 3 3 15 6 28 6 41 0 152 40 201 73 27 17 57 37 68 43 10 6 23 19 29 29 6 10 18 27 28 38 31 35 76 132 93 197 10 36 19 72 22 80 7 24 7 159 0 167 -4 3 -7 14 -7 24 0 39 -51 177 -80 214 -16 22 -30 45 -30 52 0 7 -9 17 -20 23 -11 6 -20 17 -20 24 0 8 -37 52 -82 99 -94 96 -163 136 -286 167 -94 24 -261 26 -342 4z m444 -314 c74 -24 107 -93 113 -240 4 -90 2 -114 -17 -170 -12 -36 -35 -82 -50 -104 -41 -55 -123 -113 -189 -133 -80 -24 -201 -22 -273 6 -49 19 -59 28 -77 66 -43 92 -54 223 -26 329 16 60 77 164 103 173 8 3 25 16 39 29 44 41 121 59 238 57 58 -1 121 -7 139 -13z"/>
 <path d="M5202 10795 c-69 -88 -153 -195 -186 -237 l-61 -78 -85 0 c-138 0 -130 -8 -130 131 0 75 -4 120 -11 125 -6 4 -9 20 -6 39 5 28 3 32 -13 28 -40 -11 -59 13 -62 80 l-3 62 -84 3 c-46 2 -88 -1 -92 -5 -4 -4 -11 -222 -14 -483 -4 -261 -9 -477 -12 -480 -3 -3 -35 -7 -71 -10 l-67 -5 0 -75 0 -75 51 -3 51 -3 -1 -37 -1 -37 60 -7 c33 -5 103 -7 155 -6 l95 3 3 45 c1 25 7 54 13 66 6 12 9 87 7 195 l-3 174 104 -2 104 -1 75 -89 c124 -147 212 -244 288 -320 l73 -71 99 1 99 2 -29 33 c-17 20 -27 40 -24 50 5 16 -27 56 -255 313 -101 114 -100 112 -84 143 8 15 65 91 127 169 63 78 144 181 181 230 38 48 71 87 75 87 4 0 12 11 18 24 13 27 2 34 -66 43 -19 3 -36 6 -38 8 -2 2 13 26 34 53 20 28 36 54 35 58 0 5 -51 11 -112 14 l-112 5 -125 -160z"/>
 <path d="M7450 10951 l-35 -6 -6 -205 c-8 -271 -8 -858 0 -940 l6 -65 43 -3 c32 -2 49 2 72 20 16 13 29 28 29 34 1 7 26 35 56 62 30 28 55 55 55 60 0 5 27 35 60 65 33 31 60 60 60 65 0 5 32 39 70 76 39 36 70 70 70 75 0 5 36 43 80 84 44 40 80 78 80 83 0 12 85 94 97 94 4 0 7 -160 5 -355 -2 -293 -1 -356 11 -361 7 -2 46 -6 86 -7 78 -2 73 -6 113 75 4 10 8 272 8 582 l0 564 -32 5 c-18 2 -40 1 -48 -3 -16 -9 -157 -152 -236 -240 -137 -153 -456 -490 -464 -490 -10 0 -20 247 -20 503 0 165 -3 219 -12 222 -28 8 -115 12 -148 6z"/>
 <path d="M9014 10951 c-2 -2 -4 -28 -4 -58 0 -41 -5 -57 -20 -70 -20 -17 -20 -30 -20 -556 l0 -538 88 3 87 3 5 35 c4 27 10 36 28 38 l22 3 0 569 0 569 -91 3 c-50 2 -93 1 -95 -1z"/>
 <path d="M10625 10905 c-24 -27 -108 -133 -188 -235 l-144 -185 -147 2 c-81 0 -149 3 -150 5 -5 5 -16 253 -16 361 l0 98 -92 -3 -93 -3 -5 -65 c-5 -62 -6 -65 -32 -68 l-28 -3 -2 -417 -3 -417 -40 -5 c-39 -5 -40 -6 -43 -47 -3 -37 -6 -42 -30 -45 -26 -3 -27 -5 -30 -75 l-3 -73 155 0 155 0 3 38 c3 36 4 37 46 40 l42 3 2 132 c1 73 3 161 4 196 l2 64 65 0 64 0 72 -81 c39 -44 71 -84 71 -87 0 -3 14 -18 30 -32 17 -13 30 -30 30 -37 0 -7 14 -22 30 -34 17 -13 30 -28 30 -36 0 -7 18 -27 40 -45 22 -17 40 -36 40 -41 0 -6 17 -25 37 -44 35 -32 40 -33 137 -39 55 -3 104 -3 108 -1 5 3 -5 17 -22 31 -52 43 -41 53 55 53 47 0 85 4 85 9 0 13 -181 225 -318 372 -60 64 -101 121 -102 139 0 8 77 114 171 235 232 299 279 362 279 374 0 6 -45 11 -111 13 l-112 3 -42 -50z"/>
 <path d="M12240 10950 c-4 -3 -20 -32 -34 -64 -30 -67 -50 -87 -86 -83 -19 1 -29 -6 -47 -38 l-22 -40 -98 -6 c-54 -4 -160 -4 -235 -1 l-137 5 -41 101 c-23 56 -49 107 -58 114 -10 7 -50 12 -109 12 -105 0 -105 0 -72 -75 11 -25 19 -48 17 -51 -2 -2 -22 -6 -44 -9 -80 -11 -104 -16 -104 -22 0 -3 53 -118 119 -257 224 -474 252 -537 255 -561 2 -14 6 -28 9 -32 4 -3 7 -19 7 -35 0 -21 -5 -28 -19 -28 -11 0 -23 -4 -26 -10 -3 -5 -21 -10 -40 -10 -19 0 -36 -4 -39 -8 -3 -5 -2 -34 1 -65 l6 -57 158 0 159 0 20 40 c11 22 24 39 28 39 4 -1 31 -1 60 0 52 1 53 1 71 44 10 23 35 78 56 122 21 44 102 220 182 390 79 171 173 370 209 443 35 73 64 135 64 137 0 6 -201 11 -210 5z m-355 -520 c4 -6 10 -8 15 -5 22 14 15 -19 -24 -111 -24 -56 -49 -100 -58 -102 -19 -4 -104 188 -95 212 5 13 23 16 81 16 41 0 78 -5 81 -10z"/>
 <path d="M1777 10943 c-3 -5 -7 -221 -9 -480 -2 -328 -6 -474 -14 -477 -6 -2 -84 -5 -174 -6 -90 0 -167 -3 -172 -6 -4 -3 -8 -41 -8 -85 l0 -79 94 0 94 0 7 -40 7 -40 444 0 444 0 0 44 c0 24 3 57 6 73 l6 30 -76 -5 -76 -5 0 46 c0 60 -14 67 -129 67 l-91 0 0 415 0 415 -75 0 -75 0 0 54 c0 87 1 86 -105 86 -52 0 -96 -3 -98 -7z"/>
 <path d="M6047 10943 c-4 -3 -7 -260 -7 -569 l0 -563 23 -3 c19 -3 22 -9 22 -43 l0 -40 394 -3 c247 -1 398 1 405 8 5 5 9 57 10 116 0 93 -2 108 -19 120 -15 11 -78 14 -314 14 l-296 0 0 113 0 112 209 -3 c137 -2 212 0 219 7 6 6 48 11 94 11 l83 0 0 44 c0 25 4 47 8 50 14 8 -11 146 -28 156 -9 6 -137 10 -297 10 l-283 0 -1 75 c-1 41 -2 80 -3 85 -1 10 112 15 482 24 132 4 174 14 153 40 -5 6 -9 59 -9 118 0 59 -3 112 -7 118 -7 11 -827 15 -838 3z"/>
 <path d="M8345 9140 c-11 -4 -30 -22 -43 -39 -12 -17 -29 -31 -36 -31 -8 0 -26 -16 -40 -35 -15 -19 -33 -35 -40 -35 -8 0 -26 -16 -40 -35 -15 -19 -33 -35 -41 -35 -7 0 -30 -20 -51 -45 -20 -25 -42 -45 -48 -45 -7 0 -22 -13 -34 -30 -13 -16 -28 -30 -36 -30 -7 0 -27 -18 -45 -40 -17 -22 -37 -40 -43 -40 -6 0 -26 -18 -45 -40 -19 -22 -40 -40 -47 -40 -7 0 -22 -13 -34 -30 -13 -16 -28 -30 -36 -30 -7 0 -27 -18 -45 -40 -17 -22 -37 -40 -44 -40 -7 0 -25 -16 -40 -35 -15 -19 -34 -35 -41 -35 -7 0 -27 -18 -45 -40 -17 -22 -37 -40 -44 -40 -7 0 -25 -16 -40 -35 -15 -19 -33 -35 -40 -35 -7 0 -25 -16 -40 -35 -15 -19 -34 -35 -41 -35 -7 0 -27 -18 -45 -40 -17 -22 -38 -40 -45 -40 -7 0 -22 -13 -34 -30 -13 -16 -29 -30 -36 -30 -8 0 -29 -18 -46 -40 -17 -22 -38 -40 -45 -40 -7 0 -28 -18 -45 -40 -17 -22 -37 -40 -43 -40 -7 0 -25 -16 -40 -35 -15 -19 -33 -35 -40 -35 -7 0 -25 -16 -40 -35 -15 -19 -34 -35 -41 -35 -7 0 -27 -18 -45 -40 -17 -22 -37 -40 -44 -40 -7 0 -25 -16 -40 -35 -15 -19 -34 -35 -41 -35 -8 0 -26 -16 -40 -35 -15 -19 -33 -35 -40 -35 -7 0 -27 -18 -45 -40 -17 -22 -38 -40 -45 -40 -8 0 -26 -16 -40 -35 -15 -19 -32 -35 -39 -35 -7 0 -25 -16 -40 -35 -15 -19 -34 -35 -41 -35 -8 0 -26 -16 -40 -35 -15 -19 -33 -35 -41 -35 -7 0 -28 -18 -45 -40 -17 -22 -38 -40 -45 -40 -7 0 -25 -16 -39 -35 -15 -19 -33 -35 -40 -35 -8 0 -26 -16 -40 -35 -15 -19 -33 -35 -41 -35 -7 0 -28 -18 -45 -40 -17 -22 -38 -40 -45 -40 -7 0 -25 -16 -39 -35 -15 -19 -33 -35 -40 -35 -8 0 -26 -16 -40 -35 -15 -19 -33 -35 -40 -35 -8 0 -26 -16 -40 -35 -15 -19 -33 -35 -41 -35 -7 0 -28 -18 -45 -40 -17 -22 -38 -40 -45 -40 -8 0 -23 -13 -35 -30 -12 -16 -28 -30 -36 -30 -8 0 -19 -11 -24 -24 -5 -13 -22 -33 -39 -46 -17 -12 -31 -28 -31 -35 0 -8 -18 -29 -40 -46 -22 -18 -40 -38 -40 -45 0 -7 -13 -22 -30 -34 -16 -12 -30 -27 -30 -34 0 -8 -16 -26 -35 -40 -19 -15 -35 -33 -35 -40 0 -8 -16 -26 -35 -40 -19 -15 -35 -33 -35 -41 0 -7 -18 -28 -40 -45 -22 -17 -40 -38 -40 -45 0 -8 -13 -23 -30 -35 -16 -12 -30 -28 -30 -35 0 -8 -13 -24 -30 -37 -16 -12 -30 -27 -30 -34 0 -7 -18 -27 -40 -44 -22 -17 -40 -38 -40 -46 0 -7 -13 -23 -30 -36 -16 -12 -30 -27 -30 -34 0 -7 -18 -28 -40 -45 -22 -18 -40 -38 -40 -45 0 -7 -16 -25 -35 -40 -19 -14 -35 -32 -35 -40 0 -7 -16 -25 -35 -40 -19 -14 -35 -32 -35 -40 0 -7 -13 -23 -30 -36 -16 -12 -30 -27 -30 -34 0 -7 -16 -25 -35 -40 -19 -14 -35 -32 -35 -39 0 -7 -16 -25 -35 -39 -19 -15 -35 -33 -35 -40 0 -8 -16 -26 -35 -40 -19 -15 -35 -33 -35 -41 0 -8 -16 -26 -35 -41 -19 -14 -35 -32 -35 -40 0 -7 -16 -25 -35 -40 -19 -14 -35 -32 -35 -40 0 -7 -16 -25 -35 -40 -19 -14 -35 -32 -35 -40 0 -7 -16 -25 -35 -40 -19 -14 -35 -32 -35 -40 0 -7 -16 -25 -35 -40 -19 -14 -35 -31 -35 -38 0 -11 -12 -24 -99 -112 -23 -22 -41 -46 -41 -52 0 -6 -16 -23 -35 -38 -19 -14 -35 -32 -35 -40 0 -7 -13 -23 -30 -36 -16 -12 -30 -27 -30 -34 0 -7 -18 -27 -40 -44 -22 -17 -40 -37 -40 -44 0 -7 -13 -22 -30 -34 -16 -13 -30 -29 -30 -36 0 -8 -16 -26 -35 -40 -19 -15 -35 -33 -35 -41 0 -8 -16 -27 -35 -42 -19 -15 -35 -33 -35 -40 0 -7 -16 -24 -35 -39 -19 -14 -35 -32 -35 -40 0 -7 -16 -25 -35 -40 -19 -14 -35 -31 -35 -37 0 -7 -18 -30 -40 -52 -88 -88 -100 -102 -100 -112 0 -6 -12 -21 -26 -32 -14 -11 -35 -35 -47 -52 l-22 -33 21 -23 c12 -13 26 -23 33 -23 6 0 16 -9 23 -20 7 -11 18 -20 25 -20 6 0 20 -11 31 -25 11 -14 25 -25 31 -25 6 0 18 -11 27 -25 9 -14 22 -25 30 -25 7 0 21 -11 30 -25 9 -14 22 -25 30 -25 8 0 19 -9 26 -20 7 -11 18 -20 25 -20 7 0 20 -11 29 -25 9 -14 22 -25 29 -25 7 0 20 -11 29 -25 9 -14 23 -25 31 -25 8 0 20 -9 27 -20 7 -11 18 -20 25 -20 7 0 20 -11 29 -25 9 -14 22 -25 30 -25 8 0 19 -9 26 -20 7 -11 18 -20 25 -20 7 0 20 -11 29 -25 9 -14 22 -25 30 -25 7 0 21 -11 30 -25 9 -14 22 -25 29 -25 7 0 20 -11 29 -25 9 -14 23 -25 31 -25 8 0 19 -9 25 -20 6 -11 17 -20 25 -20 8 0 22 -11 31 -25 9 -14 22 -25 30 -25 8 0 19 -9 26 -20 7 -11 18 -20 25 -20 7 0 20 -11 29 -25 9 -14 22 -25 30 -25 7 0 18 -9 24 -20 6 -11 17 -20 25 -20 7 0 22 -11 33 -25 11 -14 25 -25 31 -25 6 0 18 -11 27 -25 9 -14 22 -25 30 -25 8 0 19 -9 26 -20 7 -11 18 -20 25 -20 7 0 20 -11 29 -25 9 -14 22 -25 30 -25 7 0 21 -11 30 -25 9 -14 22 -25 30 -25 7 0 21 -11 30 -25 9 -14 22 -25 30 -25 7 0 18 -9 24 -20 6 -11 17 -20 25 -20 8 0 22 -11 31 -25 9 -14 22 -25 30 -25 7 0 18 -9 24 -20 6 -11 17 -20 25 -20 8 0 20 -9 27 -20 7 -11 18 -20 25 -20 6 0 20 -11 31 -25 11 -14 25 -25 30 -25 6 0 19 -11 30 -25 11 -14 25 -25 31 -25 6 0 18 -11 27 -25 9 -14 22 -25 30 -25 8 0 19 -9 26 -20 7 -11 18 -20 25 -20 7 0 20 -11 29 -25 9 -14 22 -25 30 -25 7 0 21 -11 30 -25 9 -14 22 -25 30 -25 7 0 21 -11 30 -25 9 -14 22 -25 30 -25 7 0 18 -9 24 -20 6 -11 17 -20 25 -20 8 0 22 -11 31 -25 9 -14 22 -25 30 -25 8 0 19 -9 26 -20 7 -11 18 -20 25 -20 7 0 20 -11 29 -25 9 -14 22 -25 30 -25 7 0 18 -9 24 -20 6 -11 17 -20 25 -20 7 0 22 -11 33 -25 11 -14 25 -25 31 -25 6 0 16 -9 23 -20 7 -11 18 -20 25 -20 7 0 22 -14 35 -30 12 -17 28 -30 35 -30 7 0 17 -9 23 -20 6 -11 17 -20 25 -20 8 0 20 -9 27 -20 7 -11 18 -20 25 -20 6 0 20 -11 31 -25 11 -14 25 -25 31 -25 6 0 16 -9 23 -20 7 -11 18 -20 25 -20 6 0 20 -11 31 -25 11 -14 25 -25 31 -25 6 0 18 -11 27 -25 9 -14 22 -25 30 -25 7 0 21 -11 30 -25 9 -14 22 -25 30 -25 7 0 18 -9 24 -20 6 -11 17 -20 25 -20 8 0 22 -11 31 -25 9 -14 22 -25 30 -25 8 0 19 -9 26 -20 7 -11 18 -20 24 -20 6 0 34 -22 63 -50 29 -27 56 -50 60 -50 5 0 14 -6 20 -14 13 -15 66 -17 89 -3 7 5 21 6 31 2 11 -3 22 -1 26 5 3 5 20 10 38 9 30 0 54 3 117 15 40 8 103 18 125 20 11 2 28 6 37 10 9 4 22 5 28 1 6 -4 17 -1 25 5 8 7 26 9 39 6 14 -3 27 -2 31 4 3 5 18 9 33 9 15 0 42 2 60 5 17 4 44 8 60 11 15 2 41 7 57 10 17 3 41 7 55 9 14 1 33 6 43 10 9 5 24 6 32 3 8 -4 17 -2 20 3 3 6 20 10 38 10 18 -1 48 2 67 5 19 3 47 8 63 10 15 3 42 7 60 10 17 4 43 6 57 6 14 1 30 5 37 11 7 5 17 7 23 3 6 -4 17 -2 24 4 7 6 26 10 42 10 38 0 113 9 144 18 31 8 56 13 95 16 17 1 36 6 43 10 6 5 17 5 22 2 6 -4 17 -1 25 5 8 7 26 9 39 6 14 -3 28 -2 31 4 3 6 18 10 33 9 29 -1 80 6 109 15 22 7 99 18 133 20 14 1 31 5 38 9 7 5 21 6 31 2 11 -3 22 -1 26 5 3 5 18 10 33 9 15 0 42 2 60 5 17 3 47 8 65 11 17 4 43 8 57 11 14 3 39 6 55 7 17 2 36 6 43 10 7 5 21 6 31 2 11 -3 22 -1 26 5 3 5 18 10 33 10 26 0 50 3 117 14 88 15 112 18 130 20 11 1 26 5 33 9 7 5 21 6 31 2 11 -3 22 -1 26 5 4 7 18 9 30 6 13 -3 27 -2 30 4 3 5 20 10 38 9 18 0 43 2 57 5 14 3 48 8 75 11 28 3 62 11 77 16 15 6 32 8 38 4 6 -4 17 -1 25 5 8 6 23 9 34 5 10 -3 22 -1 26 5 3 5 20 10 38 9 18 0 47 2 65 5 17 4 44 8 60 11 15 2 41 7 57 10 17 3 41 7 55 9 14 1 33 6 42 10 9 4 22 5 28 1 6 -4 17 -1 25 5 8 7 26 9 39 6 14 -3 28 -1 32 5 3 6 14 9 24 6 10 -3 38 0 62 5 23 5 54 11 68 13 14 2 39 7 55 10 17 3 41 7 55 9 14 1 33 6 43 10 9 5 24 6 32 3 8 -4 17 -2 21 4 3 6 18 10 32 9 60 -4 61 -4 47 38 -8 21 -39 86 -69 144 -31 57 -56 111 -57 119 0 8 -12 37 -27 65 -79 150 -110 213 -122 252 -7 23 -17 42 -22 42 -5 0 -13 12 -19 27 -9 23 -33 76 -83 183 -9 19 -23 46 -31 60 -7 14 -42 84 -76 155 -34 72 -91 190 -126 262 -35 73 -93 193 -129 268 -35 74 -95 197 -131 272 -37 76 -95 195 -130 264 -35 69 -63 132 -64 140 0 8 -10 32 -22 55 -12 23 -42 81 -66 130 -24 49 -72 146 -107 215 -35 70 -64 133 -65 140 0 8 -10 32 -22 55 -77 144 -107 205 -107 218 0 7 -7 19 -15 26 -8 7 -15 23 -15 35 0 12 -8 33 -18 46 -26 34 -92 165 -92 182 0 8 -7 20 -16 28 -12 10 -14 23 -9 57 4 26 2 48 -5 57 -6 7 -10 41 -10 76 0 69 -3 137 -15 264 -4 44 -8 105 -11 135 -2 30 -6 84 -9 120 -3 36 -6 90 -8 120 -1 30 -6 63 -11 73 -5 10 -6 40 -2 67 4 30 2 51 -4 55 -6 4 -10 34 -9 68 1 34 -1 98 -5 142 -13 150 -15 180 -21 250 -3 39 -7 95 -8 125 -2 30 -6 63 -11 73 -5 9 -5 37 -2 61 5 28 3 47 -4 51 -6 4 -11 35 -10 73 1 68 -4 154 -15 272 -3 36 -8 92 -10 125 -2 33 -7 89 -10 125 -3 36 -6 90 -8 120 -1 30 -6 63 -11 73 -5 10 -6 40 -2 67 4 30 2 51 -4 55 -6 4 -10 34 -9 68 1 34 -2 96 -5 137 -13 147 -16 196 -16 249 0 29 -5 60 -11 67 -7 9 -9 32 -5 63 4 33 3 52 -5 57 -8 4 -10 26 -5 65 3 35 2 61 -5 64 -5 4 -9 37 -8 73 1 37 -2 101 -5 142 -4 41 -7 93 -7 115 -1 22 -6 61 -12 86 -11 40 -15 45 -32 39z m-328 -995 c2 -33 3 -90 3 -127 -1 -36 4 -69 10 -73 7 -4 8 -29 4 -69 -4 -44 -3 -66 5 -70 8 -5 10 -26 5 -66 -4 -39 -3 -60 5 -65 9 -5 10 -28 5 -76 -5 -49 -3 -73 6 -84 9 -10 11 -33 7 -70 -3 -34 -1 -57 5 -61 7 -4 8 -32 4 -80 -5 -48 -3 -75 4 -79 8 -5 9 -32 4 -85 -4 -54 -3 -80 5 -84 8 -5 9 -28 5 -70 -4 -44 -3 -66 5 -70 8 -5 10 -26 5 -66 -4 -39 -3 -60 5 -65 9 -5 10 -28 5 -76 -5 -49 -3 -73 6 -84 9 -10 11 -33 7 -70 -3 -34 -1 -57 5 -61 7 -4 8 -31 4 -75 -4 -44 -2 -70 5 -74 7 -5 8 -34 4 -90 -5 -57 -4 -85 4 -89 8 -5 9 -28 5 -70 -4 -44 -3 -66 5 -70 8 -5 10 -26 5 -67 -4 -39 -3 -64 5 -73 8 -9 10 -31 5 -65 -4 -34 -3 -56 5 -65 8 -10 10 -34 5 -75 -5 -43 -3 -65 6 -76 9 -10 11 -34 7 -75 -3 -36 -1 -63 5 -66 6 -4 8 -37 3 -89 -5 -58 -3 -85 5 -90 8 -5 9 -27 5 -71 -5 -39 -3 -69 3 -77 20 -24 372 -759 367 -767 -3 -4 3 -18 13 -31 31 -40 133 -249 127 -258 -3 -6 -1 -12 4 -16 14 -8 133 -246 127 -252 -3 -4 0 -11 8 -17 7 -6 82 -155 166 -331 84 -176 209 -434 276 -574 68 -139 121 -257 119 -261 -3 -5 -1 -12 5 -15 16 -10 131 -245 125 -255 -3 -4 2 -16 11 -25 9 -9 34 -52 55 -95 l38 -80 -34 -16 c-19 -9 -39 -13 -45 -9 -6 4 -17 1 -25 -5 -8 -6 -23 -9 -34 -5 -10 3 -22 1 -26 -5 -4 -7 -18 -9 -30 -6 -13 3 -27 2 -30 -4 -3 -6 -18 -10 -33 -9 -29 1 -80 -6 -109 -15 -18 -5 -100 -17 -138 -20 -11 0 -26 -5 -33 -9 -7 -5 -21 -6 -31 -2 -11 3 -22 1 -26 -5 -3 -5 -20 -9 -38 -9 -18 1 -45 -1 -62 -4 -16 -4 -46 -9 -65 -12 -19 -4 -46 -8 -60 -11 -14 -3 -38 -6 -55 -7 -16 -2 -36 -6 -43 -11 -7 -4 -20 -5 -29 -2 -8 4 -22 1 -29 -5 -8 -6 -25 -8 -38 -5 -14 3 -28 2 -31 -4 -3 -5 -16 -9 -28 -9 -12 0 -40 -2 -62 -6 -44 -8 -89 -14 -120 -18 -11 -1 -26 -6 -33 -10 -7 -5 -21 -5 -33 -2 -11 4 -26 1 -34 -5 -8 -6 -23 -9 -34 -5 -10 3 -22 1 -26 -5 -3 -5 -18 -10 -33 -9 -25 1 -43 -2 -127 -17 -39 -7 -95 -15 -120 -17 -11 -1 -26 -6 -33 -10 -7 -5 -20 -6 -29 -3 -8 4 -22 1 -29 -5 -8 -6 -23 -9 -34 -6 -11 3 -23 1 -26 -5 -3 -5 -14 -8 -24 -5 -15 4 -58 -2 -145 -19 -16 -4 -41 -6 -55 -6 -14 0 -31 -4 -37 -10 -7 -6 -20 -7 -29 -4 -9 4 -23 1 -30 -5 -8 -6 -23 -9 -34 -6 -11 3 -23 1 -26 -4 -3 -5 -17 -9 -32 -8 -15 0 -40 -2 -57 -5 -61 -11 -111 -18 -130 -20 -11 -1 -26 -5 -33 -9 -7 -5 -20 -6 -29 -3 -8 4 -22 1 -29 -5 -8 -6 -23 -9 -34 -6 -11 3 -22 1 -25 -4 -3 -4 -18 -8 -33 -7 -30 1 -91 -7 -120 -16 -18 -6 -83 -16 -132 -19 -14 -1 -31 -6 -38 -10 -7 -5 -21 -6 -31 -2 -11 3 -22 1 -25 -4 -4 -5 -19 -10 -34 -10 -39 0 -119 -12 -201 -30 -25 -5 -51 -7 -58 -4 -7 3 -19 0 -27 -6 -7 -6 -20 -9 -29 -5 -8 3 -18 1 -22 -5 -11 -19 -43 -12 -63 14 -11 14 -25 25 -31 25 -6 0 -16 9 -23 20 -7 11 -18 20 -25 20 -7 0 -20 11 -29 25 -9 14 -22 25 -30 25 -8 0 -19 9 -26 20 -7 11 -18 20 -25 20 -7 0 -20 11 -29 25 -9 14 -22 25 -30 25 -8 0 -19 9 -26 20 -7 11 -18 20 -25 20 -7 0 -18 9 -25 20 -7 11 -18 20 -25 20 -6 0 -20 11 -31 25 -11 14 -25 25 -31 25 -6 0 -18 11 -27 25 -9 14 -22 25 -30 25 -7 0 -18 9 -24 20 -6 11 -17 20 -25 20 -8 0 -20 9 -27 20 -7 11 -18 20 -25 20 -7 0 -20 11 -29 25 -9 14 -22 25 -30 25 -8 0 -19 9 -26 20 -7 11 -18 20 -25 20 -7 0 -18 9 -25 20 -7 11 -18 20 -25 20 -7 0 -18 9 -25 20 -7 11 -18 20 -25 20 -6 0 -20 11 -31 25 -11 14 -25 25 -31 25 -6 0 -18 11 -27 25 -9 14 -22 25 -29 25 -7 0 -34 20 -59 45 -26 25 -51 45 -56 45 -6 0 -15 9 -22 20 -7 11 -18 20 -24 20 -6 0 -32 20 -57 45 -26 25 -52 45 -57 45 -5 0 -15 9 -22 20 -7 11 -18 20 -25 20 -6 0 -20 11 -31 25 -11 14 -25 25 -31 25 -6 0 -16 9 -23 20 -7 11 -18 20 -25 20 -7 0 -20 11 -29 25 -9 14 -22 25 -30 25 -8 0 -19 9 -26 20 -7 11 -18 20 -24 20 -6 0 -32 20 -57 45 -26 25 -52 45 -57 45 -5 0 -15 9 -22 20 -7 11 -18 20 -25 20 -6 0 -20 11 -31 25 -11 14 -25 25 -31 25 -6 0 -18 11 -27 25 -9 14 -23 25 -30 25 -8 0 -17 7 -20 15 -4 8 -12 15 -19 15 -8 0 -22 11 -33 25 -11 14 -24 25 -29 25 -4 0 -30 20 -57 45 -27 25 -53 45 -58 45 -4 0 -13 9 -20 20 -7 11 -18 20 -25 20 -6 0 -20 11 -31 25 -11 14 -25 25 -31 25 -6 0 -16 9 -23 20 -7 11 -18 20 -25 20 -7 0 -18 9 -25 20 -7 11 -18 20 -25 20 -6 0 -20 11 -31 25 -11 14 -25 25 -30 25 -6 0 -19 11 -30 25 -11 14 -25 25 -31 25 -6 0 -16 9 -23 20 -7 11 -18 20 -25 20 -7 0 -18 9 -25 20 -7 11 -18 20 -25 20 -6 0 -20 11 -31 25 -11 14 -25 25 -31 25 -6 0 -16 9 -23 20 -7 11 -18 20 -25 20 -7 0 -20 11 -29 25 -9 14 -22 25 -30 25 -8 0 -19 9 -26 20 -7 11 -18 20 -25 20 -7 0 -20 11 -28 24 -9 13 -25 26 -36 29 -17 5 -19 9 -10 26 7 11 20 25 31 31 11 6 20 17 20 24 0 8 14 26 30 39 17 14 30 30 30 35 0 6 16 24 35 41 19 17 35 35 35 40 0 6 16 23 35 38 19 15 35 33 35 40 0 7 16 25 35 40 19 15 35 33 35 40 0 7 16 25 35 40 19 15 35 33 35 40 0 7 16 25 35 40 19 15 35 33 35 40 0 7 14 22 30 35 17 12 30 27 30 34 0 7 18 28 40 45 22 18 40 38 40 45 0 8 14 23 30 36 17 12 30 27 30 34 0 7 16 26 35 41 19 15 35 33 35 40 0 7 18 27 40 44 22 18 40 38 40 45 0 8 14 23 30 36 17 12 30 27 30 34 0 7 16 25 35 40 19 14 35 32 35 40 0 7 14 23 30 36 17 12 30 27 30 34 0 7 14 24 30 37 16 14 30 30 30 35 0 6 16 24 35 41 19 17 35 34 35 38 0 4 18 24 40 44 22 21 40 42 40 48 0 5 16 23 35 38 19 15 35 33 35 40 0 7 14 22 30 35 17 12 30 27 30 34 0 7 16 26 35 41 19 15 35 33 35 40 0 6 14 23 30 36 17 14 30 30 30 36 0 5 18 25 40 42 22 18 40 38 40 45 0 7 16 25 35 40 19 14 35 32 35 40 0 7 16 26 35 41 19 15 35 33 35 40 0 6 18 26 40 43 22 17 40 38 40 45 0 8 14 23 30 35 17 12 30 28 30 35 0 8 14 24 30 37 17 12 30 27 30 34 0 7 16 26 35 41 19 15 35 33 35 40 0 6 14 23 30 36 17 14 30 29 30 32 0 11 103 115 113 115 6 0 25 18 44 40 19 22 40 40 46 40 7 0 25 16 40 35 15 19 34 35 41 35 8 0 26 16 40 35 15 19 33 35 40 35 8 0 26 16 40 35 15 19 33 35 41 35 7 0 28 18 45 40 17 22 37 40 44 40 7 0 27 18 45 40 17 22 38 40 45 40 7 0 27 18 45 40 17 22 37 40 44 40 7 0 25 16 40 35 15 19 34 35 41 35 8 0 26 16 40 35 15 19 33 35 41 35 7 0 28 18 45 40 17 22 37 40 44 40 7 0 27 18 45 40 17 22 38 40 45 40 8 0 26 16 40 35 15 19 33 35 40 35 7 0 27 18 45 40 17 22 38 40 45 40 8 0 26 16 40 35 15 19 33 35 41 35 7 0 28 18 45 40 17 22 37 40 44 40 7 0 27 18 45 40 17 22 37 40 44 40 7 0 25 16 40 35 15 19 34 35 41 35 7 0 27 18 45 40 17 22 38 40 45 40 8 0 26 16 40 35 15 19 33 35 40 35 7 0 27 18 45 40 17 22 38 40 45 40 7 0 27 18 45 40 17 22 37 40 44 40 7 0 25 16 40 35 15 19 34 35 42 35 7 0 28 18 45 40 17 22 38 40 45 40 7 0 25 16 39 35 15 19 33 35 40 35 7 0 28 18 47 40 19 22 39 40 46 40 6 0 26 18 43 41 27 33 38 40 63 37 30 -3 31 -4 34 -63z"/>
 </g>
<g id="layer106" fill="#f2bb6b" stroke="none">
 <path d="M3150 10954 c-273 -74 -430 -286 -430 -584 0 -161 49 -292 150 -403 46 -49 169 -138 200 -143 3 0 18 -6 35 -13 16 -7 63 -14 105 -17 41 -3 85 -7 97 -9 40 -9 211 14 265 36 132 52 241 155 311 295 44 86 57 249 33 404 -3 19 -6 42 -7 50 -4 46 -67 147 -138 220 -87 88 -159 130 -279 160 -94 24 -261 26 -342 4z m277 -188 c3 -3 14 -6 24 -6 9 0 40 -16 69 -35 29 -19 55 -35 58 -35 11 0 52 -44 52 -56 0 -6 7 -18 16 -25 36 -29 57 -101 61 -209 4 -90 2 -114 -17 -170 -27 -80 -64 -131 -131 -181 -67 -51 -143 -73 -244 -72 -103 0 -173 27 -246 92 -84 75 -120 154 -136 298 -4 40 1 71 21 134 45 141 94 190 266 269 18 8 198 5 207 -4z"/>
 <path d="M5202 10795 c-69 -88 -153 -195 -186 -238 l-61 -77 -140 2 -140 3 -8 60 c-4 33 -11 137 -15 230 l-7 170 -84 3 c-46 2 -88 -1 -92 -5 -4 -4 -11 -222 -14 -483 -4 -261 -9 -477 -12 -480 -3 -3 -35 -7 -71 -10 l-67 -5 0 -75 0 -75 75 -8 c41 -4 120 -6 175 -5 l100 3 -3 248 -4 247 49 1 c26 1 72 3 100 4 48 2 55 -1 77 -29 13 -17 39 -47 58 -66 19 -19 61 -66 94 -105 121 -143 217 -251 247 -278 31 -28 34 -29 118 -23 84 6 129 12 135 19 3 2 -113 137 -230 267 -83 93 -146 168 -146 174 0 4 -10 20 -21 35 -21 29 -21 29 -3 63 11 18 25 37 32 41 6 4 12 15 12 22 0 8 4 15 9 15 9 0 266 327 291 370 8 15 31 48 50 74 19 27 34 51 33 55 -2 3 -53 8 -114 11 l-112 5 -125 -160z"/>
 <path d="M7450 10951 l-35 -6 -6 -205 c-9 -283 -9 -880 0 -910 6 -22 13 -25 56 -26 46 -1 54 3 98 45 26 25 47 49 47 54 0 5 29 36 65 70 36 34 65 65 65 70 0 5 29 36 65 69 36 33 65 64 65 69 0 6 27 35 60 66 33 30 60 60 60 65 0 5 25 32 55 60 30 27 55 55 55 62 0 14 99 100 107 92 3 -3 5 -162 4 -353 -1 -191 2 -354 7 -361 6 -9 33 -12 98 -10 l89 3 3 571 2 572 -32 5 c-18 2 -40 1 -48 -3 -16 -9 -157 -152 -236 -240 -137 -153 -456 -490 -464 -490 -10 0 -20 247 -20 503 0 165 -3 219 -12 222 -28 8 -115 12 -148 6z"/>
 <path d="M9014 10945 c-8 -26 -14 -211 -20 -651 l-7 -481 39 -6 c50 -9 103 -9 143 -1 l31 7 0 568 0 568 -91 3 c-55 2 -93 -1 -95 -7z"/>
 <path d="M10625 10905 c-24 -27 -108 -133 -188 -235 l-144 -185 -147 2 c-81 0 -149 3 -150 5 -5 5 -16 253 -16 361 l0 97 -89 0 c-58 0 -92 -4 -97 -12 -4 -6 -9 -210 -10 -452 -2 -243 -7 -457 -11 -476 -8 -33 -11 -34 -58 -37 -77 -5 -75 -3 -73 -90 l3 -78 163 1 c89 0 164 3 166 5 2 2 6 90 9 194 3 105 8 198 12 208 4 9 5 33 3 52 l-4 35 92 0 c89 0 93 -1 132 -32 23 -18 41 -38 41 -44 1 -6 20 -30 44 -52 53 -53 87 -91 87 -99 0 -3 19 -27 43 -53 39 -43 110 -125 168 -192 l24 -27 118 6 c64 3 117 9 117 14 0 11 -189 231 -318 370 -60 64 -101 121 -102 139 0 8 77 114 171 235 232 299 279 362 279 374 0 6 -45 11 -111 13 l-112 3 -42 -50z"/>
 <path d="M12238 10945 c-5 -5 -32 -57 -62 -115 l-53 -105 -139 -6 c-76 -4 -198 -4 -271 -1 l-132 5 -41 101 c-23 56 -49 107 -58 114 -10 7 -50 12 -109 12 -68 0 -93 -3 -93 -12 0 -30 207 -491 276 -615 19 -34 34 -66 34 -72 0 -6 23 -59 52 -118 29 -60 55 -118 59 -130 7 -23 11 -22 -125 -36 -17 -2 -19 -11 -20 -81 l-1 -79 130 1 c263 1 233 -4 254 45 10 23 35 78 56 122 21 44 102 220 182 390 79 171 173 370 209 443 35 73 64 135 64 137 0 9 -205 9 -212 0z m-203 -417 c7 -7 -151 -384 -170 -406 -8 -9 -24 15 -67 105 -31 65 -65 145 -76 178 -12 33 -28 77 -37 98 l-16 39 180 -4 c98 -1 182 -6 186 -10z"/>
 <path d="M1777 10943 c-3 -5 -7 -221 -9 -480 -2 -328 -6 -474 -14 -477 -6 -2 -84 -5 -174 -6 -90 0 -167 -3 -172 -6 -4 -3 -8 -41 -8 -84 l0 -79 108 -4 c240 -9 827 -4 834 7 4 6 8 41 8 78 0 56 -3 69 -19 78 -11 6 -90 10 -185 10 l-166 0 -2 248 c-1 136 -1 344 0 462 1 118 -1 225 -3 238 -5 21 -10 22 -100 22 -51 0 -96 -3 -98 -7z"/>
 <path d="M6047 10943 c-4 -3 -7 -260 -7 -569 l0 -563 28 -3 c15 -2 207 -1 427 2 l400 5 -3 70 c-2 51 -7 73 -19 83 -13 9 -94 12 -325 12 l-308 0 2 163 3 162 308 0 c354 0 333 -6 321 95 -5 43 -12 63 -25 70 -10 6 -138 10 -301 10 -208 0 -287 3 -296 12 -13 13 -18 232 -6 262 5 14 42 16 310 16 287 0 305 1 323 19 16 16 19 29 15 78 -3 32 -7 64 -10 71 -3 9 -95 12 -417 12 -228 0 -417 -3 -420 -7z"/>
 </g>
<g id="layer107" fill="#d7d2ca" stroke="none">
 <path d="M3150 10954 c-273 -74 -430 -286 -430 -584 0 -161 49 -292 150 -403 47 -51 165 -135 192 -137 4 -1 27 -8 50 -16 60 -22 279 -30 360 -14 163 33 317 149 388 294 51 103 52 106 56 258 4 145 -5 208 -43 287 -14 31 -26 59 -25 63 1 4 -33 43 -76 86 -88 90 -159 132 -280 162 -94 24 -261 26 -342 4z m348 -208 c79 -40 135 -97 172 -174 30 -60 34 -78 38 -172 4 -89 1 -115 -18 -170 -27 -80 -64 -131 -131 -181 -140 -106 -372 -96 -501 20 -92 82 -128 179 -124 334 2 80 6 102 33 158 30 66 91 132 155 172 61 37 108 47 218 44 92 -3 112 -6 158 -31z"/>
 <path d="M5202 10795 c-69 -88 -153 -195 -186 -238 l-61 -77 -143 1 c-93 1 -145 6 -149 13 -4 6 -9 106 -10 221 -2 116 -5 216 -8 223 -5 13 -170 18 -179 4 -2 -4 -7 -221 -11 -482 -4 -261 -9 -477 -12 -480 -3 -3 -35 -7 -71 -10 l-67 -5 0 -75 0 -75 173 -3 172 -2 0 245 0 245 48 1 c26 1 73 3 105 4 56 3 58 2 90 -37 137 -172 329 -395 374 -436 23 -21 33 -23 133 -21 59 1 112 4 118 8 10 6 -81 116 -222 271 -58 63 -196 230 -196 236 0 11 83 123 274 369 102 131 182 242 178 246 -4 4 -56 9 -116 11 l-109 3 -125 -160z"/>
 <path d="M7450 10951 l-35 -6 -6 -205 c-9 -285 -10 -861 -3 -899 6 -30 8 -31 57 -31 58 0 36 -18 232 196 50 54 106 114 125 134 19 20 82 88 140 151 186 202 243 260 250 249 4 -6 8 -88 9 -183 1 -95 4 -255 7 -357 l5 -185 89 -3 90 -3 0 569 0 570 -32 5 c-18 2 -40 1 -48 -3 -16 -9 -157 -152 -236 -240 -137 -153 -456 -490 -464 -490 -10 0 -20 247 -20 503 0 165 -3 219 -12 222 -28 8 -115 12 -148 6z"/>
 <path d="M9012 10945 c-4 -5 -8 -263 -9 -572 l-4 -561 78 -4 c43 -2 88 -2 101 0 l22 3 0 569 0 569 -91 3 c-53 2 -94 -1 -97 -7z"/>
 <path d="M10625 10905 c-24 -27 -108 -133 -188 -235 l-144 -185 -147 2 c-81 0 -149 3 -150 5 -5 5 -16 253 -16 361 l0 97 -90 0 c-64 0 -92 -4 -95 -12 -2 -7 -6 -227 -8 -488 l-4 -475 -69 -5 -69 -5 0 -75 0 -75 168 -3 167 -2 2 142 c2 79 3 172 4 208 0 36 2 82 2 103 l2 37 104 0 104 0 73 -82 c41 -46 76 -85 79 -88 3 -3 30 -34 60 -70 30 -36 72 -85 95 -110 22 -25 58 -66 79 -93 l39 -47 119 0 c65 0 118 4 118 9 0 13 -181 225 -318 372 -60 64 -101 121 -102 139 0 8 77 114 171 235 232 299 279 362 279 374 0 6 -45 11 -111 13 l-112 3 -42 -50z"/>
 <path d="M12237 10945 c-5 -5 -30 -57 -56 -115 l-46 -105 -145 -6 c-80 -4 -204 -4 -277 -1 l-132 5 -41 101 c-23 56 -49 107 -58 114 -10 7 -50 12 -109 12 -75 0 -93 -3 -93 -15 0 -8 25 -67 56 -132 31 -65 87 -183 124 -263 37 -80 108 -234 159 -343 51 -110 90 -205 87 -213 -3 -9 -27 -14 -73 -16 l-68 -3 0 -78 0 -79 125 0 c254 1 228 -4 249 45 10 23 35 78 56 122 21 44 102 220 182 390 79 171 173 370 209 443 35 73 64 135 64 137 0 9 -205 9 -213 0z m-187 -414 c0 -13 -159 -383 -177 -410 -8 -13 -19 -19 -23 -15 -10 10 -180 412 -180 425 0 5 86 9 190 9 105 0 190 -4 190 -9z"/>
 <path d="M1777 10943 c-3 -5 -7 -221 -9 -480 -2 -328 -6 -474 -14 -477 -6 -2 -84 -5 -174 -6 -90 0 -167 -3 -172 -6 -4 -3 -8 -41 -8 -85 l0 -79 469 0 469 0 6 23 c3 12 6 45 6 74 0 42 -4 54 -19 63 -11 6 -90 10 -185 10 l-166 0 -2 248 c-1 136 -1 344 0 462 1 118 -1 225 -3 238 -5 21 -10 22 -100 22 -51 0 -96 -3 -98 -7z"/>
 <path d="M6047 10943 c-4 -3 -7 -260 -7 -570 l0 -563 428 2 427 3 -3 70 c-2 51 -7 73 -19 83 -13 9 -94 12 -325 12 l-308 0 2 163 3 162 301 0 c353 0 339 -4 329 89 -4 38 -13 66 -23 74 -12 9 -91 12 -314 12 l-298 0 0 150 0 150 320 0 c367 0 342 -8 331 100 l-6 65 -416 3 c-228 1 -418 -1 -422 -5z"/>
 </g>
<g id="layer108" fill="#e4ddd4" stroke="none">
 <path d="M3190 10963 c-8 -3 -22 -7 -30 -11 -8 -3 -24 -7 -36 -8 -22 -3 -113 -44 -160 -73 -38 -23 -124 -106 -124 -119 0 -5 -7 -15 -15 -22 -22 -18 -65 -96 -70 -127 -2 -15 -11 -51 -19 -80 -10 -36 -14 -90 -12 -170 2 -98 7 -131 29 -192 14 -40 35 -83 46 -95 12 -12 21 -27 21 -34 0 -23 110 -129 171 -165 35 -20 67 -37 71 -37 4 -1 27 -8 50 -16 60 -22 279 -30 360 -14 163 33 317 149 388 294 51 103 52 106 56 258 4 145 -5 208 -43 287 -14 31 -25 59 -25 63 1 4 -9 15 -23 24 -14 9 -25 21 -25 27 0 16 -82 97 -97 97 -8 0 -16 6 -19 14 -7 19 -132 75 -196 88 -55 11 -272 19 -298 11z m308 -217 c78 -40 135 -97 171 -171 61 -123 56 -320 -10 -421 -14 -21 -28 -47 -32 -57 -4 -9 -14 -20 -23 -24 -9 -3 -39 -21 -65 -39 -28 -19 -73 -37 -106 -44 -32 -7 -66 -16 -75 -21 -24 -12 -65 -11 -74 2 -3 6 -16 8 -29 5 -12 -3 -25 -3 -28 1 -4 3 -19 8 -33 9 -56 6 -180 109 -217 181 -30 57 -45 142 -43 236 2 80 6 102 33 158 30 66 91 132 155 172 61 37 108 47 218 44 92 -3 112 -6 158 -31z"/>
 <path d="M7447 10948 l-39 -10 2 -117 c1 -64 -1 -297 -5 -518 -4 -222 -4 -423 -1 -448 l7 -45 52 0 c58 0 36 -19 232 196 50 54 106 114 125 134 19 20 82 88 140 151 186 202 243 260 250 249 4 -6 8 -88 9 -183 1 -95 4 -255 7 -357 l5 -185 90 -3 90 -3 -7 568 c-4 312 -7 568 -8 569 0 1 -13 4 -27 7 -24 6 -39 -6 -136 -101 -60 -59 -132 -134 -161 -167 -70 -81 -144 -160 -224 -241 -38 -37 -68 -72 -68 -78 0 -13 -152 -154 -157 -146 -5 7 -11 260 -14 509 -1 146 -5 214 -13 216 -33 10 -116 12 -149 3z"/>
 <path d="M9014 10945 c-2 -5 -3 -28 -4 -50 0 -22 -2 -275 -5 -563 l-5 -524 100 4 101 3 -3 557 c-2 306 -7 560 -11 565 -13 12 -169 20 -173 8z"/>
 <path d="M12232 10930 c-9 -14 -35 -65 -57 -115 l-40 -90 -145 -6 c-80 -4 -204 -4 -276 -1 l-131 5 -21 41 c-11 23 -24 52 -27 66 -4 14 -13 32 -20 40 -8 8 -16 27 -20 41 -8 32 -34 39 -141 39 -58 0 -74 -3 -74 -14 0 -8 5 -18 10 -21 6 -3 10 -13 10 -21 0 -8 19 -54 41 -102 42 -87 103 -218 278 -595 51 -110 90 -205 87 -213 -3 -9 -27 -14 -73 -16 l-68 -3 0 -78 0 -79 130 1 c223 3 229 3 234 26 2 11 10 29 17 40 8 11 14 26 14 33 0 8 8 26 19 40 10 15 29 52 41 82 25 60 58 132 131 285 27 55 62 129 78 165 17 36 71 150 121 254 50 104 89 194 86 202 -3 9 -33 14 -96 16 -88 3 -92 2 -108 -22z m-182 -399 c0 -18 -171 -406 -184 -420 -12 -11 -20 -2 -51 65 -49 106 -56 123 -114 269 -17 44 -31 83 -31 88 0 4 86 7 190 7 106 0 190 -4 190 -9z"/>
 <path d="M1788 10943 c-16 -4 -18 -32 -19 -376 -1 -492 -3 -577 -9 -578 -3 0 -14 -3 -25 -6 -11 -3 -90 -6 -175 -6 l-155 -2 0 -65 c0 -108 -50 -98 473 -99 l459 -2 7 23 c3 13 6 46 6 75 0 41 -4 54 -19 62 -10 6 -91 10 -181 10 -89 0 -164 2 -166 4 -2 2 -5 216 -6 476 l-2 473 -24 9 c-24 9 -132 10 -164 2z"/>
 <path d="M4467 10943 c-2 -5 -6 -93 -8 -198 -2 -104 -4 -215 -5 -245 -1 -30 -2 -159 -3 -287 -1 -264 6 -247 -96 -248 l-50 0 0 -75 1 -75 172 -3 172 -3 0 245 0 246 48 1 c26 1 73 3 105 4 56 3 59 2 87 -34 116 -144 173 -210 186 -215 8 -3 14 -11 14 -19 0 -7 32 -45 70 -85 39 -40 70 -76 70 -81 0 -5 14 -21 31 -36 30 -25 36 -26 139 -24 116 1 147 9 111 28 -11 7 -21 18 -21 26 0 8 -16 27 -35 42 -19 15 -35 33 -35 40 0 7 -18 27 -40 44 -22 18 -40 37 -40 43 0 10 -15 27 -109 122 -23 22 -41 44 -41 49 0 4 -17 28 -38 54 -21 25 -42 52 -46 59 -9 15 18 54 216 309 81 105 148 196 148 202 0 6 9 15 20 21 11 6 20 16 20 23 0 7 12 23 26 37 24 22 25 25 8 31 -32 13 -208 10 -224 -4 -24 -19 -90 -103 -90 -114 0 -6 -8 -17 -19 -24 -23 -17 -155 -187 -164 -211 -4 -10 -11 -18 -17 -18 -5 0 -10 -7 -10 -15 0 -9 -7 -18 -16 -22 -8 -3 -20 -16 -25 -29 -9 -24 -9 -24 -159 -23 -99 1 -153 5 -158 13 -4 6 -8 61 -8 121 -4 338 -3 322 -27 329 -32 8 -155 7 -160 -1z"/>
 <path d="M6046 10942 c-2 -4 -5 -260 -5 -569 l-2 -562 428 2 428 2 -2 45 c-2 25 -3 57 -3 72 -1 49 -19 52 -320 45 -151 -3 -287 -3 -303 0 l-27 5 2 162 3 161 301 0 c343 0 341 0 329 70 -3 22 -7 50 -8 63 -3 33 -27 43 -99 40 -35 -2 -168 -2 -295 0 l-233 2 0 150 0 150 320 0 c313 0 320 0 330 21 8 14 8 29 1 50 -6 17 -8 43 -5 58 l6 28 -85 7 c-106 9 -756 6 -761 -2z"/>
 <path d="M9796 10939 c-3 -8 -7 -227 -9 -486 -2 -260 -6 -475 -9 -478 -3 -3 -34 -6 -69 -8 l-64 -2 0 -75 0 -75 168 -3 167 -2 2 142 c2 79 3 172 4 208 0 36 2 82 2 103 l2 37 104 0 104 0 73 -82 c41 -46 76 -85 79 -88 3 -3 30 -34 60 -70 30 -36 72 -85 95 -110 22 -25 57 -66 78 -91 l38 -47 120 0 c65 0 119 3 119 8 0 14 -243 296 -311 360 -38 36 -109 132 -109 149 0 12 27 63 37 70 18 12 153 189 153 200 0 5 9 15 20 21 11 6 20 17 20 25 0 8 6 18 13 22 19 12 87 100 87 112 0 7 7 14 15 17 8 4 15 13 15 20 0 8 6 17 14 20 18 7 66 79 66 99 0 12 -17 15 -101 15 -86 0 -105 -3 -130 -21 -16 -11 -29 -27 -29 -34 0 -8 -9 -19 -20 -25 -11 -6 -20 -17 -20 -25 0 -8 -6 -18 -14 -22 -18 -10 -91 -102 -99 -125 -4 -10 -11 -18 -17 -18 -5 0 -10 -6 -10 -12 0 -7 -16 -28 -35 -47 -19 -19 -35 -38 -35 -42 0 -5 -20 -29 -44 -55 l-45 -46 -146 5 -146 5 -5 223 c-3 123 -8 226 -11 229 -2 3 -42 7 -89 9 -64 2 -85 0 -88 -10z"/>
 </g>
<g id="layer109" fill="#f6e9d6" stroke="none">
 <path d="M3189 10962 c-8 -2 -29 -11 -47 -19 -19 -8 -36 -12 -39 -9 -7 7 -146 -65 -156 -81 -4 -7 -12 -13 -16 -13 -21 0 -95 -83 -117 -130 -4 -8 -16 -25 -26 -36 -11 -12 -21 -38 -24 -57 -2 -20 -9 -48 -16 -64 -6 -15 -10 -32 -9 -37 1 -5 -1 -16 -5 -25 -11 -24 -11 -214 -1 -228 5 -7 7 -19 4 -27 -3 -7 -2 -17 3 -22 5 -5 16 -35 24 -67 8 -32 29 -74 46 -95 16 -20 30 -41 30 -47 0 -15 83 -95 98 -95 7 0 12 -5 12 -11 0 -5 17 -17 38 -25 20 -9 47 -25 60 -37 12 -11 22 -18 22 -14 0 3 19 -1 43 -9 59 -22 279 -30 359 -14 163 33 317 149 388 294 22 45 43 92 47 106 11 46 13 278 3 331 -14 74 -66 180 -102 207 -10 7 -18 18 -18 25 0 15 -51 67 -66 67 -7 0 -14 4 -16 8 -7 18 -119 84 -148 87 -17 2 -36 7 -42 11 -7 4 -23 9 -36 10 -14 2 -32 6 -41 10 -17 8 -227 13 -252 6z m319 -221 c34 -19 80 -55 103 -80 22 -25 46 -53 54 -61 45 -50 63 -221 36 -335 -24 -104 -82 -205 -117 -205 -8 0 -14 -4 -14 -9 0 -9 -105 -64 -125 -66 -5 0 -15 -4 -22 -8 -6 -4 -18 -4 -26 -1 -8 3 -18 1 -22 -5 -7 -12 -97 -15 -108 -5 -4 4 -20 8 -36 9 -72 6 -198 98 -245 179 -38 64 -54 145 -52 249 2 80 6 102 33 158 30 66 91 132 155 172 61 37 108 47 218 44 98 -2 109 -5 168 -36z"/>
 <path d="M7447 10947 l-37 -11 6 -191 c5 -140 4 -194 -4 -199 -16 -9 -17 -682 -2 -691 6 -3 10 -15 10 -26 0 -16 7 -19 47 -19 53 0 33 -17 228 196 50 54 106 114 125 134 19 20 82 88 140 151 186 202 243 260 250 249 4 -6 8 -88 9 -183 1 -95 4 -255 7 -357 l5 -185 78 -3 c57 -2 81 1 90 11 8 11 10 152 4 565 -6 545 -6 550 -27 560 -14 6 -27 5 -39 -2 -31 -20 -147 -133 -147 -144 0 -6 -27 -35 -60 -64 -33 -29 -60 -58 -60 -65 0 -6 -27 -36 -60 -65 -33 -29 -60 -57 -60 -63 0 -6 -27 -35 -60 -65 -33 -30 -60 -60 -60 -67 0 -7 -7 -13 -15 -13 -8 0 -15 -6 -15 -14 0 -8 -30 -40 -66 -72 -36 -32 -70 -69 -75 -81 -5 -13 -16 -23 -26 -23 -17 0 -18 20 -21 293 -5 428 -6 440 -28 442 -11 1 -37 4 -59 7 -22 3 -57 1 -78 -5z"/>
 <path d="M9018 10951 c-5 -17 -8 -175 -13 -635 l-5 -508 90 4 c49 2 93 8 97 12 7 7 8 1105 1 1112 -6 6 -168 20 -170 15z"/>
 <path d="M12230 10928 c-11 -15 -20 -34 -20 -43 0 -9 -18 -49 -40 -89 l-40 -73 -160 -5 c-88 -3 -211 -3 -273 0 l-113 5 -32 58 c-18 33 -31 63 -28 68 3 5 -1 14 -8 21 -8 6 -17 24 -21 40 -5 21 -13 29 -37 34 -48 10 -156 7 -163 -4 -3 -6 -1 -27 6 -48 12 -37 21 -56 154 -342 40 -85 113 -244 164 -353 51 -110 90 -205 87 -213 -3 -9 -27 -14 -73 -16 l-68 -3 0 -79 0 -78 125 2 c69 2 148 3 175 3 49 1 50 1 73 46 12 25 22 50 22 54 0 4 11 25 25 45 14 20 25 45 25 56 0 10 16 47 35 82 19 34 35 67 35 72 0 8 60 139 89 192 4 8 23 47 41 85 18 39 48 100 66 137 19 37 34 72 34 77 0 5 16 37 35 71 19 34 38 74 41 89 4 14 12 32 18 40 6 7 16 29 22 47 14 41 11 42 -104 46 -68 3 -73 2 -92 -24z m-180 -397 c0 -18 -171 -406 -184 -420 -12 -12 -22 3 -69 100 -30 63 -61 132 -67 154 -7 22 -23 66 -36 98 -13 32 -24 63 -24 68 0 5 79 9 190 9 106 0 190 -4 190 -9z"/>
 <path d="M1792 10943 l-23 -5 7 -473 7 -473 -22 -11 c-16 -9 -65 -10 -174 -5 -146 6 -153 6 -171 -15 -15 -17 -18 -31 -13 -76 3 -30 8 -59 11 -63 3 -6 205 -10 465 -11 l458 -2 7 23 c3 13 6 46 6 73 0 45 -3 51 -27 62 -18 8 -84 12 -182 12 -84 0 -155 2 -157 4 -2 1 -5 205 -6 451 -2 246 -6 450 -10 453 -5 2 -8 15 -8 27 0 20 -6 24 -46 30 -49 6 -84 6 -122 -1z"/>
 <path d="M4480 10944 c-17 -5 -23 -160 -24 -681 -1 -187 -5 -294 -11 -295 -5 -1 -39 -2 -75 -3 l-65 0 0 -75 1 -75 172 -3 172 -3 0 245 0 246 48 1 c26 1 73 3 105 4 57 3 58 2 90 -38 18 -22 47 -55 65 -72 17 -17 32 -37 32 -43 0 -6 9 -16 20 -22 11 -6 20 -17 20 -25 0 -8 16 -26 35 -41 19 -14 35 -32 35 -40 0 -7 16 -25 35 -40 19 -14 35 -32 35 -39 0 -6 18 -26 40 -44 22 -17 40 -38 40 -46 0 -33 44 -46 153 -44 57 1 110 4 116 8 7 5 0 15 -19 29 -16 13 -30 28 -30 36 0 7 -18 27 -40 45 -22 17 -40 37 -40 44 0 7 -16 25 -35 40 -19 15 -35 34 -35 41 0 7 -18 27 -40 45 -22 17 -40 38 -40 46 0 8 -9 19 -21 25 -11 6 -36 35 -55 63 -18 29 -41 62 -50 74 -15 22 -14 25 21 75 21 29 105 139 187 245 81 105 148 196 148 202 0 7 7 14 15 17 8 4 15 10 15 15 0 6 10 23 22 40 31 41 16 49 -96 49 l-90 0 -32 -35 c-17 -19 -35 -42 -38 -50 -3 -8 -10 -15 -16 -15 -5 0 -10 -6 -10 -14 0 -7 -18 -31 -40 -52 -22 -22 -40 -45 -40 -52 0 -7 -7 -15 -15 -18 -8 -4 -15 -12 -15 -20 0 -7 -9 -18 -20 -24 -11 -6 -20 -17 -20 -26 0 -8 -7 -17 -15 -20 -8 -4 -15 -12 -15 -18 0 -7 -16 -29 -35 -50 -19 -21 -35 -42 -35 -46 0 -4 -9 -15 -19 -24 -17 -16 -32 -17 -108 -12 -48 4 -111 6 -140 6 -32 -1 -54 4 -60 12 -7 12 -13 165 -13 364 l0 81 -53 7 c-56 6 -93 6 -117 0z"/>
 <path d="M6050 10945 c0 0 -3 -255 -6 -567 l-6 -567 429 2 428 2 3 28 c2 16 -2 35 -8 42 -7 9 -9 26 -5 45 6 26 4 30 -14 30 -11 0 -23 5 -27 12 -5 8 -79 9 -283 5 -152 -4 -286 -4 -299 -1 -22 6 -22 7 -20 168 l3 161 301 0 c240 0 304 3 317 14 19 15 23 66 6 77 -6 3 -9 19 -5 34 4 23 1 29 -17 35 -12 4 -141 6 -287 5 -146 -1 -277 1 -292 5 l-28 7 0 149 0 149 320 0 c312 0 320 0 330 21 9 15 8 24 0 35 -8 9 -10 29 -6 58 l7 44 -333 6 c-183 4 -372 5 -420 4 -48 -2 -88 -3 -88 -3z"/>
 <path d="M9813 10943 l-23 -4 -2 -342 c-2 -188 -3 -403 -3 -479 0 -75 -3 -139 -7 -143 -3 -3 -35 -7 -70 -8 l-63 -2 0 -75 0 -75 100 -3 c55 -2 128 0 162 3 l62 6 6 42 c4 34 10 195 14 410 l1 27 104 0 104 0 73 -82 c41 -46 76 -85 79 -88 3 -3 30 -34 60 -70 30 -36 72 -85 95 -110 22 -25 57 -66 78 -91 l38 -47 112 2 c106 1 112 2 109 21 -2 11 -14 28 -28 38 -13 10 -24 25 -24 32 0 8 -13 23 -30 35 -16 12 -30 28 -30 35 0 8 -20 30 -45 51 -25 20 -45 43 -45 50 0 7 -11 21 -25 30 -14 9 -25 21 -25 28 0 6 -22 31 -50 55 -27 24 -50 50 -50 56 0 7 -7 15 -15 19 -8 3 -15 12 -15 20 0 7 -7 16 -15 20 -8 3 -15 13 -15 22 0 18 59 104 72 104 4 0 8 7 8 15 0 8 9 20 20 27 11 7 20 18 20 25 0 7 9 18 20 25 11 7 20 19 20 26 0 7 7 15 15 18 8 4 15 12 15 20 0 8 9 19 20 26 11 7 20 18 20 23 0 6 16 28 35 49 19 21 35 43 35 48 0 5 7 11 15 14 8 4 15 12 15 18 0 7 16 29 35 50 19 21 35 41 35 45 0 3 12 17 25 30 51 48 31 61 -93 61 -85 -1 -122 -12 -122 -38 0 -6 -11 -19 -25 -30 -14 -11 -25 -25 -25 -31 0 -6 -9 -16 -20 -23 -11 -7 -20 -19 -20 -26 0 -7 -7 -15 -15 -18 -8 -4 -15 -12 -15 -20 0 -8 -9 -19 -20 -26 -11 -7 -20 -17 -20 -21 0 -12 -83 -117 -92 -117 -5 0 -8 -7 -8 -15 0 -8 -11 -22 -25 -31 -14 -9 -25 -21 -25 -28 0 -6 -11 -21 -25 -34 -25 -24 -54 -25 -268 -8 l-48 4 -4 193 c-7 263 -5 255 -62 263 -48 6 -73 6 -110 -1z"/>
 </g>
<g id="layer110" fill="#fcfbf9" stroke="none">
 <path d="M3194 10959 c-2 -4 -25 -12 -50 -18 -115 -29 -266 -124 -305 -193 -50 -88 -77 -148 -89 -203 -7 -33 -15 -64 -17 -68 -6 -11 -6 -189 0 -207 3 -8 11 -37 18 -65 6 -27 18 -63 26 -78 8 -15 11 -32 8 -37 -3 -6 -2 -10 3 -10 9 0 29 -28 68 -92 17 -28 46 -58 57 -58 5 0 23 -12 41 -27 44 -37 141 -81 195 -88 25 -4 53 -9 61 -12 17 -6 227 -6 238 0 4 3 32 10 62 16 136 28 281 149 348 290 44 91 53 139 53 261 0 122 -14 198 -53 280 -38 79 -140 190 -215 232 -29 16 -56 34 -59 39 -3 5 -9 7 -14 4 -5 -3 -21 0 -37 6 -15 7 -41 13 -58 15 -16 2 -37 7 -45 10 -20 8 -231 11 -236 3z m272 -192 c121 -44 226 -161 237 -264 2 -16 6 -33 8 -38 5 -9 4 -44 -2 -197 0 -10 -5 -20 -10 -23 -5 -4 -7 -10 -4 -15 11 -18 -50 -123 -93 -161 -50 -44 -138 -90 -179 -94 -16 -1 -36 -6 -46 -10 -10 -4 -50 -5 -89 -2 -78 7 -180 48 -223 91 -14 14 -29 26 -33 26 -24 1 -89 129 -99 195 -20 144 -12 215 39 315 44 89 154 172 251 189 64 11 197 4 243 -12z"/>
 <path d="M7470 10950 c-8 -5 -25 -10 -37 -10 l-21 0 5 -273 c5 -201 3 -276 -5 -281 -15 -9 -17 -402 -2 -411 6 -3 10 -40 10 -81 l0 -74 47 0 c45 0 49 2 126 83 43 45 82 87 85 94 8 13 227 247 315 336 31 32 57 61 57 65 0 15 160 165 168 158 4 -4 7 -121 7 -259 1 -139 2 -303 3 -365 l2 -113 88 3 87 3 -4 555 c-2 305 -5 557 -7 558 -1 2 -18 4 -36 4 -27 1 -43 -9 -90 -56 -32 -31 -58 -60 -58 -65 0 -5 -27 -34 -60 -64 -33 -31 -60 -60 -60 -65 0 -6 -27 -35 -60 -65 -33 -31 -60 -60 -60 -65 0 -6 -25 -33 -55 -60 -30 -28 -55 -55 -55 -60 0 -5 -31 -39 -70 -76 -38 -37 -70 -71 -70 -76 0 -11 -90 -93 -96 -87 -3 2 -7 96 -9 208 -3 112 -7 278 -10 368 l-4 164 -28 2 c-15 1 -41 5 -58 9 -16 4 -37 2 -45 -4z"/>
 <path d="M9019 10951 c-1 -3 -1 -75 1 -159 1 -104 -2 -157 -9 -166 -8 -10 -9 -16 -1 -21 6 -3 7 -11 3 -17 -9 -16 -15 -500 -8 -645 l7 -123 89 0 89 0 0 560 0 560 -47 0 c-27 0 -65 4 -85 9 -21 5 -39 6 -39 2z"/>
 <path d="M5262 10856 c-40 -53 -77 -96 -82 -96 -6 0 -10 -5 -10 -11 0 -15 -89 -129 -101 -129 -5 0 -9 -6 -9 -13 0 -7 -16 -30 -35 -51 -19 -21 -35 -42 -35 -46 0 -4 -9 -15 -20 -25 -18 -16 -34 -17 -166 -12 -80 3 -149 9 -153 12 -3 4 -6 108 -6 231 l0 224 -90 0 -90 0 -2 -212 c-1 -117 -4 -337 -7 -488 l-6 -275 -72 0 -73 0 0 -75 1 -74 164 3 c91 1 167 5 170 7 2 3 4 111 5 242 l0 237 30 -3 c17 -2 63 2 104 9 l74 12 26 -29 c65 -74 116 -137 120 -148 2 -6 15 -19 28 -29 12 -10 23 -24 23 -30 0 -7 16 -25 35 -40 19 -15 35 -33 35 -40 0 -7 16 -25 35 -40 19 -15 35 -32 35 -36 0 -5 23 -32 52 -60 l51 -51 67 0 c37 0 80 -2 96 -5 16 -3 36 -1 44 4 12 9 9 16 -18 44 -17 18 -32 35 -32 38 0 2 -34 40 -75 84 -41 44 -75 84 -75 88 0 5 -13 20 -30 34 -16 13 -30 31 -30 38 0 8 -7 18 -16 23 -23 13 -134 144 -134 159 0 16 180 254 197 260 7 3 13 9 13 14 0 14 81 119 91 119 5 0 9 5 9 10 0 6 32 53 71 106 40 52 69 97 66 100 -3 3 -50 8 -104 11 l-99 6 -72 -97z"/>
 <path d="M6047 10940 c-1 -3 -1 -256 1 -562 l3 -558 414 0 413 0 4 61 c3 65 -4 79 -38 79 -13 0 -26 5 -30 11 -5 9 -86 11 -293 8 l-286 -4 0 170 0 170 95 0 c52 0 152 -4 222 -9 94 -7 151 -5 218 5 96 14 122 28 100 54 -8 9 -11 30 -7 55 4 33 2 40 -12 40 -10 0 -21 3 -24 7 -4 3 -132 5 -285 4 -152 -1 -285 1 -294 4 -16 6 -18 23 -18 156 l0 149 248 0 c136 0 283 3 327 6 l80 7 1 73 1 74 -420 2 c-230 2 -420 1 -420 -2z"/>
 <path d="M10605 10865 c-38 -47 -72 -85 -77 -85 -4 0 -8 -7 -8 -15 0 -8 -9 -20 -20 -27 -11 -7 -20 -17 -20 -21 0 -9 -135 -187 -170 -224 -20 -22 -29 -23 -155 -23 -74 0 -136 4 -140 10 -3 5 -11 7 -18 4 -9 -3 -12 26 -13 118 0 68 -4 171 -8 231 l-8 107 -78 0 c-72 0 -78 -2 -85 -22 -3 -13 -6 -228 -5 -479 1 -400 0 -457 -14 -468 -10 -9 -37 -12 -78 -9 l-63 3 -1 -55 c-2 -90 -3 -90 172 -90 l151 0 9 133 c5 72 9 181 9 240 l0 109 107 1 c123 0 114 5 211 -108 32 -38 85 -98 116 -133 31 -34 57 -66 59 -71 1 -4 32 -39 67 -77 36 -38 65 -74 65 -80 0 -12 214 -29 230 -19 12 8 -8 43 -37 68 -13 10 -23 24 -23 31 0 7 -13 22 -30 34 -16 13 -30 29 -30 36 0 7 -22 32 -50 55 -27 23 -50 45 -50 49 0 4 -25 34 -57 67 -73 78 -133 158 -133 178 0 18 277 377 291 377 5 0 9 7 9 15 0 9 7 18 15 21 8 4 15 12 15 18 0 7 16 29 35 50 19 21 35 40 35 43 0 2 11 21 25 41 l25 37 -37 7 c-21 4 -68 7 -104 7 l-66 1 -68 -85z"/>
 <path d="M11313 10944 c-13 -3 -23 -9 -23 -13 0 -5 22 -55 49 -112 27 -57 78 -167 114 -244 35 -77 97 -210 137 -295 107 -228 130 -280 130 -296 0 -17 -31 -24 -95 -21 l-50 2 0 -75 0 -75 172 0 c95 0 173 4 173 9 0 10 43 106 104 231 24 50 63 133 86 185 23 52 60 128 81 168 21 41 39 79 39 85 0 7 29 71 63 142 35 72 82 169 105 216 l41 86 -46 7 c-25 3 -68 6 -95 6 l-48 0 -58 -115 -57 -115 -185 -2 c-102 -1 -229 -1 -282 0 -91 2 -97 3 -103 25 -4 12 -20 49 -36 81 -16 33 -29 65 -29 71 0 27 -38 46 -101 49 -35 3 -74 2 -86 0z m742 -406 c7 -7 -18 -70 -107 -273 -69 -157 -84 -183 -101 -166 -10 10 -68 138 -105 231 -14 36 -35 88 -48 115 -12 28 -25 62 -29 75 l-6 25 196 -1 c107 0 197 -3 200 -6z"/>
 <path d="M1782 10920 c-10 -16 -11 -116 -6 -479 l7 -459 -22 -7 c-13 -4 -83 -4 -157 0 -114 6 -139 5 -169 -9 -32 -16 -35 -20 -34 -59 1 -23 4 -53 8 -67 l7 -24 454 3 c505 3 479 -1 479 71 0 74 -27 85 -216 85 l-152 0 -5 270 c-2 149 -8 366 -11 483 l-7 212 -82 0 c-71 0 -83 -3 -94 -20z"/>
 </g>

</svg>